<?xml version="1.0" encoding="UTF-8"?>
<svg id="Layer_2" data-name="Layer 2" xmlns="http://www.w3.org/2000/svg" viewBox="0 0 1190.91 1190.09">
  <defs>
    <style>
      .cls-1 {
        fill: #0152e3;
      }

      .cls-2 {
        fill: #d39948;
      }

      .cls-3 {
        fill: #003db3;
      }

      .cls-4 {
        fill: #3992f0;
      }

      .cls-5 {
        fill: #010716;
      }

      .cls-6 {
        fill: #003baf;
      }

      .cls-7 {
        fill: #f2c16b;
      }

      .cls-8 {
        fill: #94662d;
      }

      .cls-9 {
        fill: #f2c675;
      }

      .cls-10 {
        fill: #0154e8;
      }

      .cls-11 {
        fill: #d79c4b;
      }

      .cls-12 {
        fill: #b17d39;
      }

      .cls-13 {
        fill: #ecb45b;
      }

      .cls-14 {
        fill: #fcfcfc;
      }

      .cls-15 {
        fill: #ebb259;
      }
    </style>
  </defs>
  <g id="Layer_1-2" data-name="Layer 1">
    <g>
      <path class="cls-5" d="M207.05,1190.06c-92.18-4.81-172.12-69.29-198.1-155.95-5.52-18.43-8.74-36.08-8.73-55.32l.04-71.8-.16-17.88-.09-484.14.22-193.17c.03-27.2,5.57-52.37,15.97-77.31C48.35,57.35,127.12.44,211.63.39L971.68,0c45.57-.02,89.43,12.33,126.46,38.82,29.78,21.31,54.24,48.15,70.7,81.2,13.62,27.33,22.07,57.15,22.07,88.22l-.04,699.03-.15,77.21c-3.75,108.67-95.16,199.46-204.04,205.61l-779.62-.03ZM572.64,147.35l46.81.39c3.6-9.52-1.63-19.86-8.26-19.79l-30.96.34c-8.88.1-10.36,19.04-7.59,19.06ZM563.8,160.71l-.37,20.29c-.06,3.45,2.37,5.87,5.8,5.86l55.72-.11c2.61,0,4.01-3.48,4.01-5.69v-12.86c.22-3.2.5-9.84-3.35-11.74l-54.41-.67c-3.81-.05-7.33,1.35-7.39,4.92ZM305.09,275.07c.37,1.03-.52,1.15-.69,1.44s.43,1.2.82,1.57l11.52,10.89c.47.44,1.33.21,1.88-.3,66.39-61.66,146.94-97.08,237.15-106.62l.03-14.88.06-4.34c-93.78,8.16-182.54,47.33-250.78,112.24ZM636.35,166.03l.07,15.8c87.62,8.82,169.25,45.82,233.46,105.35.75.69,1.14,2.02,3.15,2.25l11.53-12.11c.17-.28,1.62-.38,1.57-.84-.07-.63-.94-1.88-1.56-2.46-67.29-63.73-154.75-103.05-247.38-111.3-1.46.23-.85,2.53-.85,3.31ZM611.67,213.95c4.99-.01,8.95-3.83,8.95-8.11v-10.29s-48.89.02-48.89.02c-.74,2.53-.28,4.85-.37,7.54-.19,5.79,3.77,10.92,9.79,10.91l30.52-.07ZM554.9,208.94c3.04-.35,3.44-4.32,3.18-6.16-.21-1.52-1.61-4.73-4.18-4.47-83.98,8.55-162.96,44.22-224.36,101.98l8.04,7.79c60.21-56.75,135.28-89.79,217.31-99.14ZM852.77,308.1l7.58-8.22c-61.03-56.76-138.31-92.8-221.06-101.7-4.16-.45-5.77,3.48-5.45,6.25.47,4.06,2.97,4.51,6.98,4.99,79.5,9.46,153.1,44.26,211.95,98.68ZM200.3,217.76l-2.14,2.09c-3.6,3.51-5.18,9.24-4.25,15.1,3.35,21.18,21.44,37.35,42.53,38.83,2.71,5.88,7.34,10.44,11.59,15.61,8.52,10.35,17.13,19.89,26.36,29.53l23.57,24.62,88.01,88.62,5.82,5.66,5.56-7.92c5.73-8.16,11.72-15.98,18.5-24.1.78-.94-1.75-3.09-2.26-3.09l-76.48-73.45-48.36-44.65c-.84.02-1.58-1.11-2.12-1.63-2.58-2.48-4.98-5.44-8.31-6.9-.2-.42-.43-.77-.73-1.09-2.12-2.3-4.48-4.53-7.13-6.21-.34-.22-.91-.49-1.13-.83-1.19-1.84-2.9-3.32-5.01-3.94l-1.03-1.07c-1.47-1.52-2.85-3.24-4.92-3.89-1.11-1.88-3.07-3.03-5.4-4.12.99-2.8-1.2-7.55-2.77-9.9.11-.22.57-1.08.48-1.33-8.56-23.67-38.24-37.78-50.38-25.93ZM937.38,251.01c-.16,1.25-.92,2.52-.54,3.92l-16.58,12.68-114.67,105.72-14.99,14.89c-1.38,1.37-3.49,2.19-4.57,4.9,7.05,6.96,12.87,14.69,17.95,22.73l5.93,9.4,6.37-6.2,101.04-102.54,34.84-40.22c.6-.69.7-1.76.75-2.35,16.32-1.54,29.95-10.25,38.02-24.87,5.71-10.34,8.08-23.84-.44-29.38.59.11.71-.41.54-.76-11.22-11.74-31.77-2.4-43.05,10.08-5.84,6.46-9.56,13.83-10.58,21.99ZM254.01,329.63c-13.98,17.85-26.23,37.26-36.61,57.48-.75.77-2.4,3.07-1.61,4.23l10,5.12c1.53.78,2.39,1.36,2.55,2.89l-13.5-5.54-5.84-3.38c-2.22-1.25-4.54-.99-7.04.28-1.67.85-2.75,3.07-3.76,5.13l-8.13,16.7c-1.92,3.94-2.13,9.31,2.41,11.37l20.77,9.42,5.15,2.65c3.24,1.67,7.11,1.27,8.82-2.39l9.5-20.43c1.2-2.58,2.11-5.15.75-7.68-1.02-1.91-3.47-3.29-6.26-4.76,1.16-2.41,1.98-4.57,2.92-6.27,9.91-17.86,21.06-34.8,32.94-51.39,1.15-1.61,3.8-2.88,4.07-5.81l-12.79-12.99c-2.25,1.52-3.07,3.69-4.34,5.36ZM922.26,343.04c12.92,16.08,23.08,34.01,33.3,51.91.98,1.72,1.39,4.04,3.5,5.06-3.3,2.91-9.86,5.02-7.07,10.75l12.06,24.8c1.89,3.88,8.34-.21,10.98-1.41l22.66-10.32c3.04-1.38,3.87-5.84,2.63-8.53l-9.46-20.43c-.96-2.08-2.57-4.03-4.2-4.65-3.09-1.18-10.85.77-12.15,3.61-4.16.86-8.2,3.39-11.91,5.3-.51.11-1.49-.2-2.01-.49,3.76-3.31,8.82-5.28,13.91-7.1-.21-2.48-1.71-4.08-2.67-5.84-10.7-19.57-22.24-38.88-36.49-56.06-1.36-1.64-1.83-4.15-4.47-5.45l-12.84,13.59,4.21,5.24ZM632.95,766.92c-31.34,7.23-63.17,3.19-90.61-12.5-34.34-19.64-56.37-56.6-66.5-94.37-12.88-48-10.85-98.25,6.91-144.65,9.52-24.89,23.99-46.63,43.89-64.05,32.21-28.21,75.83-38.1,116.87-25.91,24.45,7.26,44.48,22.47,58.02,43.97,6.62,10.52,10.99,21.55,14.46,33.45.47,1.62,2.31,2.94,4.2,2.94h101.7c2.25,0,4.31-1.7,4.01-4.15-4.61-37.83-19.3-73.42-44.3-102.27-58.3-67.29-156.89-86.79-240.88-63.98-43.36,11.77-81.36,35.25-112.17,67.84-71.95,76.12-87.96,193.73-55.28,291.44,10.69,31.96,26.94,61.03,48.23,86.54,41.81,50.09,101.48,78.84,166.55,81.83,56.55,2.6,112.29-13.31,157.14-48.38,41.92-32.78,72.77-80.03,81.16-132.96.47-2.97-1.73-4.73-4.44-4.73l-101.59.05c-2,0-3.68,2.04-4.12,3.74-10.94,42.35-39.18,75.99-83.22,86.15ZM207.36,534.08c5.12,2.51,7.78,5.67,9.76,11.02,6.16-67.38,32.7-133.07,73.32-187.53l-7.91-7.8c-13.75,17.16-24.57,35.21-35.08,54.21.27,2.9,1.06,5.98-.15,8.62l-12.55,27.52c-1.15,2.52-3.12,4.2-5.83,5.51-10.27,28.56-18.26,57.44-21.57,88.45ZM960.25,445.38c-2.05-1.07-3.89-1.89-4.58-3.39l-14.14-31.08c-.9-1.97-.02-4.78.16-6.98-10.44-18.95-21.29-36.96-34.82-54.24l-8.04,8.13c41.06,54.12,66.6,120.44,73.61,187.22,2.14-5.33,4.92-8.47,9.43-11.21-3.79-30.64-11.25-59.54-21.63-88.43ZM195.89,439.43c-10.39,28.94-17.59,58.53-21.3,89.22-.11.91-.17,2.09.04,2.49.29.56,1.52.51,2.56.5l14.45-.08c3.3-29.4,10.8-57.37,19.94-85.38,1.01-3.09,2.68-5.53,2.57-8.96l-14.88-6.49c-1.57,2.73-2.26,5.57-3.38,8.7ZM977.54,445.74c8.76,28.22,16.72,56.23,20.15,85.71l14.73.08c.5,0,1.51.52,1.87.26,1.15-.81.27-1.79.13-2.85-4.06-30.5-10.62-60.04-20.95-88.82-1.11-3.1-1.68-6.35-3.76-9.32l-14.52,7.37,2.35,7.58ZM681.7,493.14l-16.54,15.76-29.49,28.52-61.95,59.94-76.58,74.91-5.07,5.44c4.02,9.96,7.79,19.45,13.95,28.08,1.92,2.69,3.04,6.14,6.52,8.48,2.7-1.27,4.5-4.21,6.65-6.24l14.1-13.35,59.38-58.37,37.46-36.66,69.16-67.49,2.88-3.69,12.31-12.07c-4.02-2.41-6.26-5.04-7.85-9.39l-3.92-10.71c-.76-2.08-3.01-2.58-4-3.74-2.44-2.84-5.01-3.8-8.29-4.38-4.42-.79-5.95,2.32-8.73,4.98ZM504.77,497.68c-2.41,1.23-3.94,2.05-5.15,4.5-4.37,8.89-8.4,17.64-10.43,27.56l7.72,8.01,3.82,3.79,54.21,53.18c1.63,1.6,3.75,4.97,6.01,4.92,3.03-1.08,4.96-4.42,7.08-6.49l22.17-21.57c-.23-1.34-1.56-2.05-2.54-2.99l-70.59-66.88-6.76-6.88-5.55,2.83ZM163.42,549.55l.11,90.1c0,7.87,7.73,13.3,14.78,13.27l21.21-.08c7.82-.03,13.73-6.23,13.73-14.22l-.07-87.68c0-3.78-1.84-6.97-4.25-9.14s-4.79-4.12-8.47-4.07l-24.88.32c-6.33.08-10.2,5.69-12.17,11.49ZM978.72,545.84c-.8.91-1.77,1.95-1.77,4.07l-.1,88.76c0,8.08,6,14.15,13.94,14.2l21.39.14c5.45.04,13.97-4.74,13.99-11.59l.27-90.61c.02-7.43-7.6-13.09-14.38-13.04l-23.28.19c-4.73.04-8.48,4.04-10.06,7.89ZM606.6,644.98l7.01,7.06,64.88,63.83,3.18,3.05c1.29,1.23,3.1,1.33,3.96,2.59l5.38-6.59c5.86-7.17,14.59-29.1,13.44-32.12-.44-1.16-1.83-1.81-2.96-2.9l-63.01-61.06-3.96-3.45c-1.49-1.3-2.74-4.04-5.63-4.99l-20.16,19.93c-2.79,2.76-6.39,4.9-8.4,8.24,1.04,3.11,4.35,4.49,6.26,6.41ZM207.98,661.62c3.64,28.55,11.19,56.1,21.09,83.28,2.94,1.84,5.36,4.13,6.84,7.44l12.33,27.56c.8,1.79.31,4-.58,6.02,12.17,22.12,25.15,43.4,41.56,63.25,3.24-2.31,5.56-4.46,7.83-7.88-43.35-54.69-70.45-119.55-79.61-188.55-.39-2.9.6-4.77-1.25-7.56-.53,5.79-3.67,8.82-8.38,11.05-.98,1.03-.01,3.98.17,5.38ZM941.48,778.33l13.16-28.87,5.27-4.82c11.06-28.7,18.35-58.1,22.25-88.42-5.73-1.94-7.67-5.84-9.42-10.91-8.41,71.65-35.87,139.26-80.35,195.94,2.16,3.58,4.95,5.99,8.25,7.57,15.66-19.51,28.42-39.68,40.17-61.4.28-2.86-.61-6.27.67-9.09ZM997.57,664.46c-4.02,28.48-11.86,55.89-21.21,83.59-.33.99-2.09,3.23-1.23,4.08l14.65,8.03c1.14-1.51,1.02-2.66,1.57-4.1,11.23-29.7,19.67-60.19,22.86-91.8l.85-8.4-15.89.31-1.58,8.29ZM174.54,663.78c3.85,30.89,11.77,61.13,22.43,90.66.69,1.91.86,3.78,2.35,5.53l14.58-8.09c1.07-.59-.18-3.3-.95-4.04-9.55-27.22-16.77-54.56-21.03-83.08l-1.22-8.53-16.72.07.55,7.48ZM215.38,758.72l-.92-.08c-.4-.84-1.48-1.38-2.72-.83l-15.92,7.1c-3.94,1.76-7.36,4.37-7.27,8.71l9.06,20.82c1.28,2.95,2.76,5.15,5.35,6.24,2.9,1.22,5.3.03,8.2-1.37l15.39-7.41,7.17-3c3.91-1.64,5.69-5.42,3.84-9.41l-10.11-21.85c-1.88-4.07-5.91-5-9.79-2.8-.84.48-1.88.78-2.36,1.48s-.4,1.66.06,2.4ZM961.04,790.83l19.94,9.71c3.11,1.52,7.47.48,9.05-2.83l10.23-21.43c2.43-5.09-.93-8.87-5.3-10.87l-19.84-9.08c-2.85-1.31-9.15-6-11.61-.93l-12.02,24.69c-1.77,3.64.71,6.95,3.61,8.2l5.95,2.55ZM390.31,774.28l-104.55,101.49-47.54,46.42c-4.78,4.67-7.1,9.98-7.23,16.57-.18,8.94,5.84,17.14,13.61,20.06,9.37,3.53,17.79.08,24.56-6.6l35.22-34.77,47.33-46.59,58.69-57.75,7.1-7.34,7.93-7.64c-1.26-3.68-4.69-5.84-6.9-8.52l-13.74-16.72-5.6-7.28-8.88,8.67ZM791.93,779.19l-14.97,17.36c-2.3,2.67-5.83,4.36-7.48,7.89l8.31,8.05,2.85,3.1,59.41,57.86,67.3,66.46,13.24,12.95c7.2,7.04,17.54,9.79,26.69,4.75,8-4.41,12.93-14.4,10.52-23.51-.98-3.71-1.52-6.7-4.53-9.72l-7.88-7.9-39.04-38.42-64.4-62.38-37.58-35.99-7.5-6.73c-2.41,1.54-3.24,4.28-4.93,6.23ZM220.32,808.69c11.74,22.78,26.28,43.98,42.42,64.38.56.71.6.92,1.34,1.14.78.24,1.05-.42,1.22-1.16,4.87-3.18,8.04-7.38,12.63-11.99-15.17-18.89-28.66-38.37-40.29-59.56l-5.25-9.56-15.91,8.16c.17,3.34,2.47,5.93,3.84,8.59ZM952.52,799.89c-12.06,21.39-24.97,41.49-40.73,60.84,2.62,3.54,7.82,8.48,10.62,10.86.72.62,2.04,3.94,3.2,2.55,16.81-20.15,31.27-41.85,43.46-64.99l4.72-8.96-16.79-8.02c-2.38,2.42-3.02,5.14-4.47,7.72ZM551,993.46c4.06.49,6.58-1.22,7.05-4.63.32-2.35-.68-5.6-4.17-6.02-75.14-8.92-145.88-39.53-202.89-88.97l-7.81,7.88c58.65,50.86,130.85,82.47,207.82,91.74ZM640.99,993.5c76.29-9.74,147.68-41.27,205.22-91.71l-7.69-7.98c-53.66,47.64-127.95,80.85-199.33,88.64-4.03.44-6.44,2.62-5.87,6.44.45,3.02,2.77,5.23,7.67,4.6ZM322.44,930.16c65.44,56.35,146.44,91.02,232.71,99.48,1.15-.29.72-2.14.72-2.81v-16.61c-81.37-8.56-157.54-40.96-220.03-94.01-1.44-1.22-1.98-2.98-4.52-3.3l-12.94,13.02c-.17,1.74,2.76,3.11,4.06,4.23ZM853.7,916.89c-61.41,52.19-137.03,84.83-217.61,93.29l-.06,16.8c0,.66-.02,1.6.24,1.89.48.52,1.51.7,3.07.53,70.85-7.4,138.47-32.82,196.7-73.71l30.04-23.88c1.91-1.52,4.23-2.54,5.37-5.42l-13.09-12.7c-1.54-.92-3.85,2.54-4.66,3.2ZM571.46,991.74l-.18,6.52,48.89-.12c1.02-1.84.7-3.92.11-5.83.89-4.32-.9-12.85-6.91-12.87l-34.6-.1c-5.97-.02-7.2,8.1-7.32,12.39ZM622.15,1035.64c3.56,0,6.38-2.46,6.38-6.01l-.02-18.31c0-3.13-2.39-4.8-5.38-4.8h-54.91c-2.7-.02-4.85,2.33-4.85,4.89l-.02,17.99c0,3.18,2.4,6.14,5.85,6.14l52.96.09ZM607.18,1061.32c5.9.05,10.95-2.38,12.55-8.42.78-2.92.76-6.22.3-9.55l-48.55-.05.2,7.94c.12,4.9,4.34,9.82,9.52,9.86l25.98.22Z"/>
      <path class="cls-14" d="M632.95,766.92c44.04-10.16,72.28-43.8,83.22-86.15.44-1.7,2.12-3.74,4.12-3.74l101.59-.05c2.71,0,4.92,1.75,4.44,4.73-8.39,52.93-39.24,100.19-81.16,132.96-44.85,35.07-100.6,50.98-157.14,48.38-65.07-2.99-124.74-31.74-166.55-81.83-21.29-25.51-37.54-54.58-48.23-86.54-32.68-97.72-16.67-215.32,55.28-291.44,30.81-32.59,68.81-56.07,112.17-67.84,84-22.8,182.58-3.31,240.88,63.98,25,28.86,39.7,64.45,44.3,102.27.3,2.45-1.75,4.14-4.01,4.14h-101.7c-1.89,0-3.72-1.31-4.2-2.93-3.47-11.89-7.83-22.93-14.46-33.45-13.54-21.5-33.56-36.71-58.02-43.97-41.04-12.19-84.66-2.3-116.87,25.91-19.89,17.42-34.36,39.17-43.89,64.05-17.76,46.4-19.79,96.64-6.91,144.65,10.13,37.77,32.16,74.73,66.5,94.37,27.44,15.69,59.27,19.73,90.61,12.5Z"/>
      <path class="cls-13" d="M798.59,786.21l22.99,21.79,33.41,32.56,46.86,45.91,13.19,12.64c3.75-5.95-4.78-8.06-1.5-11.68l11.91,11.17c-1.26,2.08-3.16,3.64-3.46,6.26-.25,2.18,3.43,5.48,5.61,4.76s2.83-3.03,4.17-4.8l6.92,6.87c-2.7,1.34-4.41,3.92-3.82,5.99.4,1.43,3.07,4.07,4.58,3.61,1.94-1.67,3.05-4.41,5.94-4.82l7.88,7.9-3.08,3.41c-.92,1.13-1.56,3.42-.9,4.38.51.74,1.46,2.09,2.44,2.07.24,5.59-1.48,11.21-6.13,13.74s-11.64,2.61-15.89-1.54l-85.74-83.83-53.99-52.94c-2.25-2.21-4.47-4.4-2.73-7.85,2.94-5.85,6.79-11.44,11.37-15.6Z"/>
      <path class="cls-13" d="M258.37,259.04c.36,2.4,2.47,4.16,4.92,3.89l1.03,1.07c.36,2.49,2.48,4.25,5.01,3.94.22.34.79.61,1.13.83,1.38,2.92,3.82,5.73,7.13,6.21.3.32.53.67.73,1.09,1.5,3.19,4.79,6.04,8.31,6.9.53.51,1.28,1.65,2.12,1.63-.51,2.8-3.79,2.52-4.36,3.99-.3.76-.08,1.97.71,2.7l22.3,20.65,20.48,19.65,79.42,75.61-14.05,16.22c-1.11.32-2.17-.23-3.22-1.21l-11.41-10.77-75.82-75.75-6.86-7.43c-19.04-18.94-37.42-38.02-54.17-58.79,4.03-4.65,9.11-8.67,11.2-14.55,2.34,1.09,4.29,2.23,5.4,4.12Z"/>
      <path class="cls-10" d="M880.22,275.22c-.68,2.57-3.88,3.39-5.48,5.54l-4.86,6.42c-64.2-59.53-145.84-96.53-233.46-105.35l-.07-15.8c85.67,7.87,167.49,42.19,232.83,98.56,4.26,3.68,8.15,6.41,11.04,10.63Z"/>
      <path class="cls-10" d="M555.8,167.17l-.03,14.88c-90.21,9.54-170.76,44.96-237.15,106.62.12-5.95-6.85-7.65-8.36-12.6,4.09-5.15,8.93-9.42,14.38-13.9,21.41-17.59,43.56-33.43,68.11-46.7,48.96-26.47,101.99-42.78,157.28-48.75l5.78.46Z"/>
      <path class="cls-10" d="M853.7,916.89c2.81,6,8.3,8.77,11.15,13.66l-10.98,7.95c-59.73,49.24-137.16,79.17-213.86,87.64-1.78.2-2.84.66-3.98.83l.06-16.8c80.59-8.46,156.2-41.1,217.61-93.29Z"/>
      <path class="cls-10" d="M555.86,1026.83c-86.87-9.39-163.45-42.07-230.33-97.83,2.07-4.88,8.6-7.69,10.3-12.8,62.49,53.06,138.66,85.45,220.04,94.01v16.61Z"/>
      <path class="cls-6" d="M852.77,308.1c-58.84-54.42-132.44-89.22-211.95-98.68-4.01-.48-6.52-.93-6.98-4.99-.32-2.77,1.29-6.7,5.45-6.25,82.75,8.9,160.03,44.95,221.06,101.7l-7.58,8.22Z"/>
      <path class="cls-6" d="M554.9,208.94c-82.03,9.35-157.1,42.39-217.31,99.14l-8.04-7.79c61.4-57.75,140.38-93.42,224.36-101.98,2.57-.26,3.96,2.95,4.18,4.47.26,1.84-.14,5.81-3.18,6.16Z"/>
      <path class="cls-2" d="M804.36,779.68c-2.86,1.48-5.15,3.65-5.77,6.53-4.58,4.16-8.43,9.74-11.37,15.6-1.73,3.45.48,5.64,2.73,7.85l53.99,52.94,85.74,83.83c4.25,4.16,11.32,4.03,15.89,1.54s6.37-8.15,6.13-13.74l6.08-.14c2.41,9.11-2.52,19.1-10.52,23.51-9.15,5.04-19.49,2.29-26.69-4.75l-13.24-12.95-67.3-66.46-59.41-57.86c2.72-4.46,2.94-9.53,3.98-14.36,2.66-12.27,17.22-17.05,7.31-22.04,1.69-1.96,2.52-4.69,4.93-6.23l7.5,6.73Z"/>
      <path class="cls-10" d="M208.93,541.81c2.42,2.17,4.25,5.36,4.25,9.14l.07,87.68c0,7.98-5.91,14.19-13.73,14.22l-21.21.08c-7.05.03-14.77-5.4-14.78-13.27l-.11-90.1c1.07.37,1.98-.18,2.36-1.44,1.81-6.08,7.56-8.63,13.7-8.53l23.89.41,5.56,1.82ZM198.74,642.29c2.75-.01,4.27-2.47,4.27-4.83l-.03-84.44c0-2.88-1.89-4.77-4.69-4.76l-19.87.09c-2.61.01-4.53,2.11-4.53,4.86v84.23c0,3.38,2.61,4.96,5.63,4.95l19.22-.1Z"/>
      <path class="cls-11" d="M698.5,518.53c.64.6,1.14.65,1.59.79.91,2.67.16,6.05,2.09,9.13l-2.88,3.69-69.16,67.49-37.46,36.66-59.38,58.37-14.1,13.35c-2.28-2.18-4.48-4.08-6.18-6.39l-.13-1.05,12.54-12.73,39.78-39.1,39.97-38.95,28.97-28.06,33.37-32.57,30.99-30.62Z"/>
      <path class="cls-2" d="M410.4,813.1l-58.69,57.75-47.33,46.59-35.22,34.77c-6.77,6.69-15.19,10.13-24.56,6.6-7.77-2.92-13.79-11.12-13.61-20.06.55.79,1.4.32,1.65-.03-.71-4.03,3.59-3.26,4.93-4.24.32,4.79,1.69,10.47,6.35,13.45,5.54,3.56,12.34,1.33,16.88-3.09l19.77-19.24,44.32-43.58,50.51-49.37,31.76-31.07c2.96,2.62,1.35,7.64,3.25,11.52Z"/>
      <path class="cls-6" d="M551,993.46c-76.97-9.27-149.17-40.87-207.82-91.74l7.81-7.88c57.01,49.44,127.75,80.04,202.89,88.97,3.48.41,4.49,3.67,4.17,6.02-.47,3.41-2.98,5.12-7.05,4.63Z"/>
      <path class="cls-10" d="M1024.74,550.76l.08,89.81c0,.86.79,1.2,1.35.86-.02,6.85-8.54,11.62-13.99,11.59l-21.39-.14c-7.94-.05-13.95-6.12-13.94-14.2l.1-88.76c0-2.12.97-3.16,1.77-4.07,4.34-4.96,9.16-6.45,16.19-6.33l19.95.36c5.38.1,9.87,5.85,9.88,10.89ZM1011.11,642.38c3.13-.54,4.97-2.71,4.97-5.71l-.05-83.84c0-2.76-2.72-4.5-5.11-4.52l-18.42-.11c-2.94-.26-5.13,1.64-5.55,4.79l.12,85.52c0,2.48,2.88,3.78,4.9,3.79l19.14.09Z"/>
      <path class="cls-6" d="M640.99,993.5c-4.9.63-7.22-1.58-7.67-4.6-.57-3.82,1.84-6,5.87-6.44,71.38-7.79,145.67-41.01,199.33-88.64l7.69,7.98c-57.54,50.44-128.92,81.97-205.22,91.71Z"/>
      <path class="cls-6" d="M941.48,778.33c-1.28,2.82-.39,6.23-.67,9.09-11.75,21.72-24.51,41.89-40.17,61.4-3.3-1.57-6.09-3.99-8.25-7.57,44.48-56.68,71.95-124.29,80.35-195.94,1.75,5.07,3.69,8.97,9.42,10.91-3.9,30.32-11.19,59.72-22.25,88.42l-5.27,4.82-13.16,28.87Z"/>
      <path class="cls-3" d="M207.98,661.62c4.44.81,7.3-4.31,9.46-8.87,9.17,68.99,36.27,133.86,79.61,188.55-2.27,3.41-4.6,5.57-7.83,7.88-16.41-19.84-29.39-41.13-41.56-63.25.88-2.03,1.38-4.23.58-6.02l-12.33-27.56c-1.48-3.31-3.9-5.61-6.84-7.44-9.9-27.18-17.45-54.73-21.09-83.28Z"/>
      <path class="cls-6" d="M207.36,534.08c3.31-31.02,11.3-59.89,21.57-88.45,2.7-1.31,4.68-2.99,5.83-5.51l12.55-27.52c1.21-2.64.41-5.72.15-8.62,10.51-18.99,21.33-37.04,35.08-54.21l7.91,7.8c-40.62,54.46-67.16,120.15-73.32,187.53-1.99-5.34-4.64-8.51-9.76-11.02Z"/>
      <path class="cls-3" d="M960.25,445.38c10.38,28.89,17.84,57.79,21.63,88.43-4.51,2.74-7.29,5.88-9.43,11.21-7.01-66.78-32.55-133.1-73.61-187.22l8.04-8.13c13.53,17.29,24.37,35.3,34.82,54.24-.18,2.2-1.06,5.01-.16,6.98l14.14,31.08c.68,1.5,2.52,2.32,4.58,3.39Z"/>
      <path class="cls-9" d="M681.7,493.14c.91,3.06,3.73,3.27,5.45,4.53-.76,2.47-2.67,4.43-4.79,6.45l-35.77,34.2-58.42,56.36-35.03,34.05-39.76,39.11-12.91,12.59-3.35-8.17,76.58-74.91,61.95-59.94,29.49-28.52,16.54-15.76Z"/>
      <path class="cls-11" d="M952.9,273.95c-.05.6-.15,1.67-.75,2.35l-34.84,40.22-101.04,102.54c-2.9-1.81-4.42-4.26-6.61-7.37-1.54,1.92-3.31,3.37-5.69,4.18-5.08-8.05-10.9-15.77-17.95-22.73,1.09-2.72,3.2-3.53,4.57-4.9l5.37,5.71,13.96,17.45,55.44-54.92,28.06-27.98,30.56-31.43,23.26-26.28c1.15,2.15,3.72,3.35,5.63,3.17Z"/>
      <path class="cls-11" d="M241.77,269.47c16.75,20.77,35.13,39.85,54.17,58.79l6.86,7.43,75.82,75.75,11.41,10.77c1.04.98,2.1,1.54,3.22,1.21-.11.5-.39,1.36-.73,1.66-2.57,1.46-5.52,3.76-6.55,7.07l-88.01-88.62-23.57-24.62c-9.23-9.64-17.84-19.19-26.36-29.53-4.25-5.17-8.88-9.73-11.59-15.61,2.2.15,3.96-2.72,5.33-4.3Z"/>
      <path class="cls-9" d="M395.8,781.15l-18.94,17.96-31.02,29.98-46.49,45.3-21.8,21.35-39.98,38.75c-1.33.98-5.64.21-4.93,4.24-.25.34-1.1.82-1.65.03.13-6.59,2.45-11.9,7.23-16.57l47.54-46.42,104.55-101.49,5.49,6.87Z"/>
      <path class="cls-1" d="M628.97,168.19v12.86c-.01,2.22-1.41,5.69-4.02,5.69l-55.72.11c-3.43,0-5.86-2.42-5.8-5.86l.37-20.29c.46.39-.06,1.41.9,2.53,1.08-3.8,4.57-6.01,8.87-6l44.98.12c2.55,0,5.19,0,7.16,1.56,1.46,1.16,1.58,3.98,2.3,6.24l.97,3.03Z"/>
      <path class="cls-1" d="M622.15,1035.64l-52.96-.09c-3.45,0-5.85-2.97-5.85-6.14l.02-17.99c0-2.56,2.15-4.91,4.85-4.91h54.91c2.99.02,5.37,1.69,5.38,4.82l.02,18.31c0,3.55-2.82,6.02-6.38,6.01Z"/>
      <path class="cls-9" d="M936.84,254.94l1.29,4.76c-2.16,3.73-6.02,6.04-9.39,9.13l-26.14,23.92-57.64,54.17-41.83,40.08c-2.49,2.39-5.41,3.9-7.15,6.95l-5.37-5.71,14.99-14.89,114.67-105.72,16.58-12.68Z"/>
      <path class="cls-7" d="M945.38,916.47c-2.89.41-4.01,3.15-5.94,4.82-1.51.46-4.18-2.18-4.58-3.61-.58-2.07,1.12-4.65,3.82-5.99l-6.92-6.87c-1.35,1.77-2.03,4.09-4.17,4.8s-5.85-2.57-5.61-4.76c.3-2.62,2.2-4.18,3.46-6.26l-11.91-11.17c-3.28,3.61,5.25,5.73,1.5,11.68l-13.19-12.64-46.86-45.91-33.41-32.56-22.99-21.79c.62-2.88,2.91-5.05,5.77-6.53l37.58,35.99,64.4,62.38,39.04,38.42Z"/>
      <path class="cls-7" d="M413.59,402.69c-2.47.74-4.66,2.63-6.29,4.51l-79.42-75.61-20.48-19.65-22.3-20.65c-.79-.74-1.01-1.94-.71-2.7.58-1.47,3.86-1.19,4.36-3.99l48.36,44.65,76.48,73.45Z"/>
      <path class="cls-10" d="M992.03,440.96c10.22,29.4,16.77,59.79,20.38,90.56l-14.73-.08c-3.43-29.47-11.38-57.49-20.15-85.71,5.26.19,9.4-3.76,14.49-4.78Z"/>
      <path class="cls-10" d="M211.58,446.19c-9.14,28.01-16.65,55.98-19.94,85.38l-14.45.08c-.29-3.22.43-6.37.96-10.08,3.96-27.76,11.1-54.41,19.27-80.76l7.15,3.01c2.43,1.02,4.59,2.14,7.01,2.37Z"/>
      <path class="cls-10" d="M1011.83,664.43c.76,2.52-.05,4.88-.51,7.8-4.39,27.87-11.28,54.7-20.88,80.74l-10-4.04c-1.38-.56-2.78-.54-4.07-.86,9.35-27.7,17.19-55.11,21.21-83.59l14.25-.04Z"/>
      <path class="cls-10" d="M191.93,664.76c4.26,28.52,11.48,55.86,21.03,83.08l-14.44,5.66c-9.83-28.86-17.4-58.55-21.19-88.89l14.6.15Z"/>
      <path class="cls-15" d="M250.69,243.69c.09.25-.37,1.11-.48,1.33-1.81,3.73-2.17,9.62-5.7,12.98-5.49,5.22-13.31,5.33-20.09,1.98-13.1-6.47-22.95-19.06-25.2-33.84-.32-2.12,1.49-5.08-1.05-6.28l2.14-2.09c17.94.48,30.93,11.09,42.2,25.31,3.11-.22,5.78-.35,8.19.62Z"/>
      <path class="cls-10" d="M966.71,808.61c-11.44,21.28-25.19,41.1-40.28,60.32-1.15,1.46-1.69,2.67-4.02,2.66-2.8-2.39-8-7.33-10.62-10.86,15.77-19.35,28.68-39.45,40.73-60.84,1.07,1.95,2.52,2.85,4.31,3.75l9.88,4.98Z"/>
      <path class="cls-15" d="M991.02,218.94c.17.35.05.87-.54.76,1.65,19.23-15.42,40.46-34.54,42.61-6.53.73-12.19-3.75-13.46-9.24,6.7-16.74,21.13-29.94,38.8-34.46,3.64-.93,6.77-1.1,9.74.33Z"/>
      <path class="cls-10" d="M237.63,801.49c11.63,21.19,25.12,40.67,40.29,59.56-4.59,4.61-7.75,8.81-12.63,11.99-1.06-3.69-3.14-6.01-5.5-8.99-13.94-17.59-25.63-36.32-36.49-55.67l14.33-6.89Z"/>
      <path class="cls-4" d="M555.8,167.17l-5.78-.46c-55.29,5.97-108.32,22.28-157.28,48.75-24.55,13.28-46.7,29.12-68.11,46.7-5.45,4.48-10.29,8.74-14.38,13.9l-5.17-.99c68.24-64.92,157-104.09,250.78-112.24l-.06,4.34Z"/>
      <path class="cls-10" d="M971.85,387.23c-5.57,1.73-11.44,3.52-16.29,7.73-10.23-17.91-20.38-35.84-33.3-51.91,1.82-.69,3.03-1.92,4.44-3.29l8.03-7.69c11.92,16.79,23.17,34.1,33.55,52.42,1,1.76,1.54,2.78,3.58,2.76Z"/>
      <path class="cls-11" d="M579.67,573.74l3.32-2.22c1.42-.95,2.76-2.53,4.69-2.92.98.93,2.31,1.65,2.54,2.99l-22.17,21.57c-1.38-1.48-2.59-2.99-4.74-3.67l-8.35,5.23-54.21-53.18.24-12.57c1.97.02,2.82,1.41,4.28,2.84l41.83,40.96,16.39,15.93,16.2-14.97Z"/>
      <path class="cls-4" d="M884.56,277.32c-.4-.39-.33-1.02-.26-1.33-.38-.88-1.81-1.24-2.74-1.05l-1.33.27c-2.89-4.22-6.78-6.95-11.04-10.63-65.34-56.38-147.16-90.69-232.83-98.56,0-.78-.61-3.07.85-3.31,92.62,8.25,180.08,47.57,247.38,111.3.62.59,1.49,1.83,1.56,2.46.05.46-1.41.56-1.57.84Z"/>
      <path class="cls-10" d="M267.06,343.07c-11.88,16.6-23.04,33.53-32.94,51.39-4.74-4.14-11.07-4.76-15.31-7.5,2.11.24,2.59-1.26,3.58-3.13,9.66-18.09,21.02-34.71,33.15-50.9,4.63,1.81,7.38,6.57,11.52,10.14Z"/>
      <path class="cls-10" d="M961.04,790.83c.78-3.49,1.61-6.68,3.11-9.96l10.96-24.54,19.84,9.08c4.37,2,7.73,5.78,5.3,10.87l-10.23,21.43c-1.58,3.31-5.94,4.35-9.05,2.83l-19.94-9.71ZM974.45,787.14l8.8-18.14c.73-1.51.32-3.08-.52-3.77-.73-.6-3.47-.96-4.08.27l-9.55,19.16c-.78,1.56.6,3.39,1.52,3.77,1.11.47,3.07.28,3.84-1.3Z"/>
      <path class="cls-11" d="M618.9,643.65l25.75,24.56,40.46,40.55.03.79c-2.33,1.68-4.28,3.78-6.64,6.33l-64.88-63.83c3.91.01,1-6.72,5.28-8.39Z"/>
      <path class="cls-10" d="M214.84,393.81l13.5,5.54c.29,2.71-.6,5.75-1.99,8.64l-8.33,17.35c-1.4,2.92-2.65,5.64-4.77,7.99l-20.77-9.42c-4.55-2.06-4.33-7.44-2.41-11.37l8.13-16.7c4.91-5.06,9.2-5.07,16.64-2.03ZM210.32,424.39l9.48-19.16c.94-1.9.02-3.64-1.09-4.3-1.22-.72-3.42-.32-4.12,1.18l-9.73,20.86c-.84,1.8,4.26,3.84,5.46,1.42Z"/>
      <path class="cls-10" d="M214.46,758.63l.92.08,10.57,23.29c1.55,3.42,2.11,6.69.61,9.88l-15.39,7.41c-2.9,1.4-5.31,2.59-8.2,1.37-2.6-1.09-4.07-3.3-5.35-6.24l-9.06-20.82,2.71-4.12,14.79-7.33c2.87-1.43,5.31-3.74,8.41-3.52ZM219.62,783.82l-7.31-16.08c-.93-2.05-1.95-3.32-4.12-2.89-1.14.22-3.17,1.57-2.33,3.42l8.69,19.12c.81,1.77,3.71,1.78,4.71.65.64-.73,1.17-2.41.35-4.21Z"/>
      <path class="cls-1" d="M990.86,394.89l9.46,20.43c1.24,2.69.41,7.14-2.63,8.53l-22.66,10.32-10.28-23.16c-1.84-3.98-2.89-7.73-2.14-11.86,3.71-1.91,7.75-4.44,11.91-5.3,8.02-1.66,11.81-4,16.35,1.04ZM985.56,421.66l-8.67-18.77c-1.09-2.37-3.15-3.29-5-2.38s-2.69,2.94-1.68,4.98l9.31,18.71c.9,1.8,2.92,1.46,4.07.95.99-.44,2.82-1.63,1.97-3.48Z"/>
      <path class="cls-4" d="M325.53,929c66.88,55.75,143.46,88.44,230.33,97.83,0,.67.44,2.52-.72,2.81-86.27-8.46-167.27-43.13-232.71-99.48,1.41-.5,2.23-.57,3.1-1.16Z"/>
      <path class="cls-1" d="M611.67,213.95l-30.52.07c-6.02.01-9.98-5.12-9.79-10.91.09-2.69-.36-5.01.37-7.54l48.88-.02v10.29c0,4.28-3.95,8.1-8.94,8.11Z"/>
      <path class="cls-1" d="M607.18,1061.32l-25.98-.22c-5.18-.04-9.4-4.96-9.52-9.86l-.2-7.94,48.55.05c.45,3.33.47,6.63-.3,9.55-1.61,6.04-6.66,8.47-12.55,8.42Z"/>
      <path class="cls-7" d="M587.67,568.61c-1.93.39-3.26,1.97-4.69,2.92l-3.32,2.22c-.42-1.22-1.03-2.34-2.13-3.39l-39.36-37.5-27.56-26.21c.88-.88,1.57-1.22,2.55-1.96.98,1.12,2.33,1.38,3.11.69,1.3-1.14,1.39-2.2.8-3.64l70.59,66.88Z"/>
      <path class="cls-4" d="M866.08,931.81l-30.04,23.88c-58.23,40.89-125.85,66.32-196.7,73.71-1.56.16-2.59,0-3.07-.53-.27-.29-.25-1.23-.24-1.89,1.14-.17,2.2-.64,3.98-.83,76.7-8.47,154.13-38.4,213.86-87.64l10.98-7.95,1.23,1.26Z"/>
      <path class="cls-2" d="M952.9,273.95c-1.91.18-4.48-1.02-5.63-3.17-2.18-4.06-5.02-8.88-9.13-11.09l-1.29-4.76c-.38-1.4.38-2.68.54-3.92.72-.82,1.05-2.06,2.75-2.81l2.35,4.87c1.27,5.49,6.93,9.97,13.46,9.24,19.12-2.15,36.19-23.38,34.54-42.61,8.52,5.54,6.14,19.04.44,29.38-8.06,14.62-21.7,23.33-38.02,24.87Z"/>
      <path class="cls-2" d="M250.2,245.02c1.56,2.36,3.76,7.11,2.77,9.9-2.08,5.88-7.16,9.9-11.2,14.55-1.37,1.58-3.13,4.45-5.33,4.3-21.09-1.47-39.18-17.64-42.53-38.83-.93-5.86.66-11.58,4.25-15.1,2.54,1.2.73,4.16,1.05,6.28,2.25,14.78,12.11,27.37,25.2,33.84,6.78,3.35,14.6,3.24,20.09-1.98,3.53-3.36,3.89-9.24,5.7-12.98Z"/>
      <path class="cls-7" d="M701.5,679.9c-1.41.34-2.13,1.21-2.69,2.54l-1.78,4.2-11.94-11.06-38.5-37.27-14.46-14.67,6.37-4.81,63.01,61.06Z"/>
      <path class="cls-1" d="M620.28,992.32c.59,1.91.91,3.98-.11,5.83l-48.89.12.18-6.52c.8,1.45-.11,4.05,1.61,5.63-.95-6.3,1.49-15.8,9.12-15.88l26.98-.27c6.37-.06,9.6,6.21,11.12,11.1Z"/>
      <path class="cls-1" d="M619.45,147.74l-46.81-.39c.11-6.58,2.57-13.1,8.77-16.01l27.56.06c7.44.02,10.57,7.83,10.48,16.34Z"/>
      <path class="cls-3" d="M218.8,386.96c4.24,2.74,10.58,3.37,15.31,7.5-.94,1.7-1.76,3.85-2.92,6.27,2.79,1.47,5.24,2.85,6.26,4.76,1.35,2.53.45,5.1-.75,7.68l-9.5,20.43c-1.7,3.67-5.57,4.07-8.82,2.39l-5.15-2.65c2.13-2.35,3.37-5.08,4.77-7.99l8.33-17.35c1.39-2.89,2.28-5.94,1.99-8.64-.16-1.52-1.02-2.1-2.55-2.89l-10-5.12c-.79-1.17.85-3.46,1.61-4.23.64,0,1.12-.19,1.41-.16Z"/>
      <path class="cls-9" d="M991.02,218.94c-2.96-1.43-6.09-1.26-9.74-.33-17.66,4.52-32.1,17.73-38.8,34.46l-2.35-4.87c-1.7.76-2.04,1.99-2.75,2.81,1.02-8.16,4.75-15.53,10.58-21.99,11.28-12.48,31.83-21.82,43.05-10.08Z"/>
      <path class="cls-3" d="M975.12,756.33l-10.96,24.54c-1.51,3.28-2.33,6.47-3.11,9.96l-5.95-2.55c-2.9-1.24-5.39-4.55-3.61-8.2l12.02-24.69c2.47-5.06,8.76-.37,11.61.93Z"/>
      <path class="cls-3" d="M226.56,791.89c1.5-3.19.94-6.46-.61-9.88l-10.57-23.29c-.46-.73-.55-1.68-.06-2.4s1.51-1,2.36-1.48c3.88-2.21,7.91-1.27,9.79,2.8l10.11,21.85c1.85,3.99.07,7.77-3.84,9.41l-7.17,3Z"/>
      <path class="cls-3" d="M962.61,399.15c-.75,4.13.3,7.88,2.14,11.86l10.28,23.16c-2.64,1.2-9.09,5.3-10.98,1.41l-12.06-24.8c-2.79-5.74,3.77-7.85,7.07-10.75l1.54-1.36c.52.29,1.49.6,2.01.49Z"/>
      <path class="cls-7" d="M250.69,243.69c-2.41-.97-5.08-.84-8.19-.62-11.26-14.22-24.26-24.83-42.2-25.31,12.14-11.86,41.83,2.26,50.38,25.93Z"/>
      <path class="cls-8" d="M634.54,615.39l-8.1,7.65-14.03,17.86c-1.53,1.94-3.05,3.78-5.81,4.09-1.91-1.92-5.22-3.3-6.26-6.41,2.01-3.34,5.61-5.48,8.4-8.24l20.16-19.93c2.89.95,4.14,3.69,5.63,4.99Z"/>
      <path class="cls-12" d="M418.54,789.61l-6.1,7.23,3,7.68c.39,1.01,1.22,1.21,2.06,1.25l-7.1,7.34c-1.9-3.88-.3-8.9-3.25-11.52.34-.33.56-.97.75-1.57,7.64-2.64-2.62-11.94-8.81-21.34.12-2.67,3.7-5.03,5.7-5.79l13.74,16.72Z"/>
      <path class="cls-4" d="M197.42,440.81c-8.17,26.35-15.3,53-19.27,80.76-.53,3.71-1.25,6.86-.96,10.08-1.04,0-2.27.05-2.56-.5-.21-.4-.15-1.58-.04-2.49,3.71-30.69,10.91-60.28,21.3-89.22.67.75,1.18,1.23,1.53,1.37Z"/>
      <path class="cls-12" d="M698.72,492.54c-3.61,3.46,5.97,12.3,4.92,20.68-.63,1.77-4.37,3.69-3.54,6.1-.45-.13-.95-.18-1.59-.79-.02-8.03-4.51-15.83-11.35-20.86-1.72-1.26-4.54-1.47-5.45-4.53,2.78-2.65,4.31-5.76,8.73-4.98,3.28.58,5.86,1.54,8.29,4.38Z"/>
      <path class="cls-4" d="M177.33,664.61c3.79,30.35,11.36,60.03,21.19,88.89l-1.54.94c-10.66-29.53-18.59-59.77-22.43-90.66.98-.16,2.03.48,2.79.83Z"/>
      <path class="cls-4" d="M223.3,808.39c10.86,19.34,22.56,38.08,36.49,55.67,2.36,2.98,4.44,5.3,5.5,8.99-.17.75-.44,1.4-1.22,1.16-.73-.22-.78-.43-1.34-1.14-16.14-20.39-30.68-41.6-42.42-64.38,1.02-.09,2.33.03,2.98-.3Z"/>
      <path class="cls-8" d="M496.91,537.76l-7.72-8.01c2.03-9.92,6.06-18.67,10.43-27.56,1.21-2.46,2.74-3.27,5.15-4.5-.96.79-1.58,1.75-1.71,2.64-.19,1.32,1.94,2.31,2.55,3.29,2.24,3.55-1.98,6.8-3.93,9.51-2.18,3.02-2.52,6.33-7.2,7.27,3.98,3.31,3.15,5.62,3.03,9.39-.08,2.6,1.7,5.71-.6,7.98Z"/>
      <path class="cls-12" d="M517.08,501.73l-3.91,2.95c-.99.74-1.68,1.08-2.55,1.96-5.8,5.84-9.83,14.09-9.65,22.34l-.24,12.57-3.82-3.79c2.3-2.27.53-5.38.6-7.98.11-3.77.95-6.08-3.03-9.39,4.68-.93,5.02-4.25,7.2-7.27,1.96-2.71,6.18-5.96,3.93-9.51-.62-.98-2.74-1.96-2.55-3.29.12-.89.74-1.85,1.71-2.64l5.55-2.83,6.76,6.88Z"/>
      <path class="cls-2" d="M500.48,680.42c3.13,7.28,7.02,14.38,12.4,20.15l.13,1.05c-2.53.7-4.26,2.75-7,4.15-6.17-8.63-9.94-18.12-13.95-28.08l5.07-5.44,3.35,8.17Z"/>
      <path class="cls-2" d="M691.02,714.92c-1.69-2.42-3.06-5.07-5.88-5.37l-.03-.79c6.63-5.61,10.12-13.71,11.92-22.11l1.78-4.2c.56-1.33,1.28-2.2,2.69-2.54,1.13,1.09,2.52,1.74,2.96,2.9,1.15,3.01-7.58,24.95-13.44,32.12Z"/>
      <path class="cls-4" d="M969.07,809.15c-12.19,23.14-26.65,44.84-43.46,64.99-1.16,1.39-2.48-1.94-3.2-2.55,2.34.01,2.87-1.19,4.02-2.66,15.09-19.22,28.85-39.03,40.28-60.32l2.35.54Z"/>
      <path class="cls-4" d="M255.54,332.93c-12.13,16.19-23.5,32.8-33.15,50.9-.99,1.86-1.47,3.37-3.58,3.13-.29-.03-.77.16-1.41.16,10.38-20.22,22.63-39.63,36.61-57.48l1.53,3.3Z"/>
      <path class="cls-8" d="M702.18,528.44c-1.93-3.08-1.17-6.46-2.09-9.13-.83-2.41,2.92-4.33,3.54-6.1,1.06-8.38-8.52-17.21-4.92-20.68.99,1.15,3.23,1.65,4,3.74l3.92,10.71c1.59,4.35,3.84,6.98,7.85,9.39l-12.31,12.07Z"/>
      <path class="cls-12" d="M638.5,618.84l-6.37,4.81c-5.83,4.7-13.32,13.42-13.22,20.01-4.28,1.67-1.37,8.4-5.28,8.39l-7.01-7.06c2.76-.3,4.28-2.14,5.81-4.09l14.03-17.86,8.1-7.65,3.96,3.45Z"/>
      <path class="cls-4" d="M1012.41,531.52c-3.61-30.77-10.16-61.17-20.38-90.56l1.44-.85c10.32,28.79,16.88,58.32,20.95,88.82.14,1.06,1.01,2.04-.13,2.85-.37.26-1.37-.26-1.87-.26Z"/>
      <path class="cls-4" d="M991.34,756.07l-.9-3.1c9.6-26.04,16.49-52.87,20.88-80.74.46-2.92,1.27-5.27.51-7.8.72,0,1.66-.45,2.37-.16-3.18,31.61-11.63,62.1-22.86,91.8Z"/>
      <path class="cls-4" d="M619.45,147.74c.08-8.51-3.04-16.33-10.48-16.34l-27.56-.06c-6.2,2.9-8.66,9.43-8.77,16.01-2.76-.02-1.29-18.97,7.59-19.06l30.96-.34c6.63-.07,11.86,10.27,8.26,19.79Z"/>
      <path class="cls-12" d="M780.64,815.58l-2.85-3.1c2.65-2.47,3.06-5.96,4.89-9.57l-5.72-6.37,14.97-17.36c9.92,4.99-4.64,9.77-7.31,22.04-1.05,4.83-1.26,9.9-3.98,14.36Z"/>
      <path class="cls-2" d="M404.79,772.89c-2,.76-5.58,3.12-5.7,5.79,6.2,9.4,16.45,18.7,8.81,21.34-2.66-7.1-7.26-13.13-12.1-18.87l-5.49-6.87,8.88-8.67,5.6,7.28Z"/>
      <path class="cls-6" d="M969.07,809.15l-2.35-.54-9.88-4.98c-1.79-.9-3.25-1.79-4.31-3.75,1.46-2.58,2.1-5.29,4.47-7.72l16.79,8.02-4.72,8.96Z"/>
      <path class="cls-4" d="M971.85,385.72v1.51c-2.03.03-2.57-1-3.57-2.76-10.38-18.32-21.63-35.63-33.55-52.42l.63-2.4c14.24,17.17,25.79,36.49,36.49,56.06Z"/>
      <path class="cls-6" d="M237.63,801.49l-14.33,6.89c-.65.34-1.96.21-2.98.3-1.37-2.66-3.67-5.25-3.84-8.59l15.91-8.16,5.25,9.56Z"/>
      <path class="cls-4" d="M620.28,992.32c-1.52-4.89-4.75-11.17-11.12-11.1l-26.98.27c-7.63.08-10.06,9.58-9.12,15.88-1.72-1.58-.81-4.18-1.61-5.63.12-4.29,1.34-12.41,7.32-12.39l34.6.1c6.02.02,7.8,8.55,6.91,12.87Z"/>
      <path class="cls-2" d="M413.59,402.69c.51,0,3.05,2.15,2.26,3.09-6.78,8.13-12.77,15.95-18.5,24.1l-4.83-4.81c.34-.3.62-1.16.73-1.66l14.05-16.22c1.63-1.88,3.82-3.76,6.29-4.51Z"/>
      <path class="cls-1" d="M1026.17,641.42c-.55.34-1.34,0-1.35-.86l-.08-89.81,1.7.05-.27,90.61Z"/>
      <path class="cls-6" d="M211.58,446.19c-2.42-.23-4.58-1.35-7.01-2.37l-7.15-3.01c-.35-.15-.86-.62-1.53-1.37,1.12-3.12,1.81-5.97,3.38-8.7l14.88,6.49c.1,3.43-1.56,5.87-2.57,8.96Z"/>
      <path class="cls-6" d="M993.47,440.11l-1.44.85c-5.09,1.02-9.24,4.97-14.49,4.78l-2.35-7.58,14.52-7.37c2.08,2.96,2.65,6.22,3.76,9.32Z"/>
      <path class="cls-6" d="M935.36,329.66l-.63,2.4-8.03,7.69c-1.41,1.37-2.61,2.6-4.44,3.29l-4.21-5.24,12.84-13.59c2.64,1.3,3.11,3.82,4.47,5.45Z"/>
      <path class="cls-6" d="M1014.2,664.26c-.71-.29-1.65.16-2.37.16l-14.25.04,1.58-8.29,15.89-.31-.85,8.4Z"/>
      <path class="cls-6" d="M267.06,343.07c-4.14-3.57-6.9-8.33-11.52-10.14l-1.53-3.3c1.28-1.67,2.1-3.84,4.34-5.36l12.79,12.99c-.27,2.93-2.92,4.2-4.07,5.81Z"/>
      <path class="cls-6" d="M866.08,931.81l-1.23-1.26c-2.85-4.89-8.34-7.67-11.15-13.66.81-.66,3.12-4.12,4.66-3.2l13.09,12.7c-1.14,2.88-3.46,3.9-5.37,5.42Z"/>
      <path class="cls-6" d="M191.93,664.76l-14.6-.15c-.75-.35-1.8-.99-2.79-.83l-.55-7.48,16.72-.07,1.22,8.53Z"/>
      <path class="cls-3" d="M335.83,916.2c-1.69,5.11-8.22,7.92-10.3,12.8-.87.59-1.69.65-3.1,1.16-1.3-1.12-4.23-2.49-4.06-4.23l12.94-13.02c2.54.32,3.08,2.08,4.52,3.3Z"/>
      <path class="cls-8" d="M417.5,805.77c-.84-.03-1.67-.24-2.06-1.25l-3-7.68,6.1-7.23c2.21,2.69,5.63,4.84,6.9,8.52l-7.93,7.64Z"/>
      <path class="cls-8" d="M777.79,812.48l-8.31-8.05c1.66-3.53,5.18-5.23,7.48-7.89l5.72,6.37c-1.83,3.61-2.24,7.1-4.89,9.57Z"/>
      <path class="cls-6" d="M960.6,398.66l-1.54,1.36c-2.11-1.02-2.52-3.35-3.5-5.06,4.85-4.2,10.72-6,16.29-7.73v-1.51c.95,1.76,2.45,3.36,2.66,5.84-5.1,1.82-10.15,3.79-13.91,7.1Z"/>
      <path class="cls-4" d="M628.97,168.19l-.97-3.03c-.72-2.26-.84-5.08-2.3-6.24-1.97-1.57-4.6-1.55-7.16-1.56l-44.98-.12c-4.3-.01-7.79,2.2-8.87,6-.95-1.12-.43-2.13-.9-2.53.06-3.57,3.58-4.97,7.39-4.92l54.41.67c3.85,1.9,3.57,8.54,3.36,11.74Z"/>
      <path class="cls-6" d="M212.96,747.84c.78.74,2.03,3.45.95,4.04l-14.58,8.09c-1.49-1.75-1.66-3.62-2.35-5.53l1.54-.94,14.44-5.66Z"/>
      <path class="cls-6" d="M990.44,752.96l.9,3.1c-.54,1.44-.43,2.59-1.57,4.1l-14.65-8.03c-.85-.85.9-3.09,1.23-4.08,1.3.33,2.69.3,4.07.86l10,4.04Z"/>
      <path class="cls-4" d="M1026.44,550.81l-1.7-.05c0-5.03-4.5-10.79-9.88-10.89l-19.95-.36c-7.03-.13-11.85,1.37-16.19,6.33,1.58-3.85,5.32-7.85,10.06-7.89l23.28-.19c6.78-.05,14.4,5.61,14.38,13.04Z"/>
      <path class="cls-4" d="M208.93,541.81l-5.56-1.82-23.89-.41c-6.14-.1-11.89,2.44-13.7,8.53-.37,1.26-1.28,1.82-2.36,1.44,1.97-5.8,5.83-11.41,12.17-11.49l24.88-.32c3.68-.05,6,1.86,8.47,4.07Z"/>
      <path class="cls-8" d="M513.01,701.62c1.7,2.31,3.89,4.21,6.18,6.39-2.15,2.04-3.95,4.98-6.65,6.24-3.49-2.34-4.6-5.79-6.52-8.48,2.74-1.41,4.47-3.45,7-4.15Z"/>
      <path class="cls-12" d="M691.02,714.92l-5.38,6.59c-.86-1.26-2.67-1.36-3.96-2.59l-3.18-3.05c2.36-2.54,4.31-4.65,6.64-6.33,2.82.31,4.2,2.95,5.88,5.37Z"/>
      <path class="cls-12" d="M397.36,429.89l-5.56,7.92-5.82-5.66c1.03-3.3,3.98-5.61,6.55-7.07l4.83,4.81Z"/>
      <path class="cls-12" d="M816.28,419.06l-6.37,6.2-5.93-9.4c2.38-.81,4.14-2.25,5.69-4.18,2.19,3.11,3.71,5.56,6.61,7.37Z"/>
      <path class="cls-3" d="M881.55,274.94c.68.75,1.68,1.1,2.74,1.05-.07.31-.13.94.26,1.33l-11.53,12.11c-2.01-.24-2.4-1.56-3.15-2.25l4.86-6.42c1.61-2.16,4.8-2.98,5.48-5.54l1.33-.27Z"/>
      <path class="cls-12" d="M568.04,593.16c-2.12,2.06-4.06,5.41-7.08,6.49-2.26.05-4.38-3.32-6.01-4.92l8.35-5.23c2.15.67,3.36,2.18,4.74,3.67Z"/>
      <path class="cls-6" d="M217.44,652.75c-2.16,4.56-5.02,9.67-9.46,8.87-.18-1.4-1.14-4.35-.17-5.38,4.71-2.23,7.84-5.26,8.38-11.05,1.84,2.78.86,4.66,1.25,7.56Z"/>
      <path class="cls-3" d="M310.25,276.05c1.51,4.95,8.48,6.66,8.36,12.6-.55.51-1.42.75-1.88.3l-11.52-10.89c-.39-.37-.99-1.28-.82-1.57s1.06-.41.69-1.44l5.17.99Z"/>
      <path class="cls-7" d="M957.79,934.09l-6.08.14c-.98.02-1.93-1.33-2.44-2.07-.66-.97-.02-3.25.9-4.38l3.08-3.41c3.01,3.02,3.55,6.01,4.53,9.72Z"/>
      <path class="cls-4" d="M214.46,758.63c-3.09-.22-5.53,2.1-8.41,3.52l-14.79,7.33-2.71,4.12c-.1-4.34,3.33-6.95,7.27-8.71l15.92-7.1c1.23-.55,2.31,0,2.72.83Z"/>
      <path class="cls-4" d="M214.84,393.81c-7.44-3.04-11.73-3.03-16.64,2.03,1-2.06,2.08-4.27,3.76-5.13,2.5-1.28,4.82-1.53,7.04-.28l5.84,3.38Z"/>
      <path class="cls-4" d="M990.86,394.89c-4.54-5.04-8.32-2.7-16.35-1.04,1.3-2.84,9.06-4.78,12.15-3.61,1.63.62,3.24,2.57,4.2,4.65Z"/>
      <path class="cls-7" d="M269.34,267.94c-2.53.3-4.65-1.46-5.01-3.94,2.11.63,3.81,2.1,5.01,3.94Z"/>
      <path class="cls-7" d="M263.3,262.93c-2.46.27-4.56-1.49-4.92-3.89,2.08.65,3.45,2.37,4.92,3.89Z"/>
      <path class="cls-7" d="M286.64,282.96c-3.53-.86-6.82-3.7-8.31-6.9,3.33,1.46,5.74,4.41,8.31,6.9Z"/>
      <path class="cls-7" d="M277.6,274.98c-3.31-.48-5.75-3.29-7.13-6.21,2.65,1.68,5.01,3.91,7.13,6.21Z"/>
      <path class="cls-5" d="M198.74,642.29l-19.22.1c-3.02.02-5.63-1.57-5.63-4.95v-84.23c0-2.75,1.92-4.85,4.53-4.86l19.87-.09c2.79-.01,4.69,1.88,4.69,4.76l.03,84.44c0,2.36-1.52,4.82-4.27,4.83Z"/>
      <path class="cls-13" d="M698.5,518.53l-30.99,30.62-33.37,32.57-28.97,28.06-39.97,38.95-39.78,39.1-12.54,12.73c-5.37-5.76-9.27-12.86-12.4-20.15l12.91-12.59,39.76-39.11,35.03-34.05,58.42-56.36,35.77-34.2c2.12-2.03,4.03-3.98,4.79-6.45,6.84,5.03,11.33,12.84,11.35,20.86Z"/>
      <path class="cls-15" d="M407.9,800.02c-.19.6-.41,1.23-.75,1.57l-31.76,31.07-50.51,49.37-44.32,43.58-19.77,19.24c-4.54,4.42-11.34,6.64-16.88,3.09-4.65-2.98-6.03-8.66-6.35-13.45l39.98-38.75,21.8-21.35,46.49-45.3,31.02-29.98,18.94-17.96c4.84,5.74,9.43,11.77,12.1,18.87Z"/>
      <path class="cls-5" d="M1011.11,642.38l-19.14-.09c-2.02,0-4.89-1.31-4.9-3.79l-.12-85.52c.42-3.15,2.61-5.05,5.55-4.79l18.42.11c2.39.01,5.11,1.76,5.11,4.52l.05,83.84c0,3.01-1.84,5.17-4.97,5.71Z"/>
      <path class="cls-13" d="M947.27,270.78l-23.26,26.28-30.56,31.43-28.06,27.98-55.44,54.92-13.96-17.45c1.75-3.05,4.66-4.56,7.15-6.95l41.83-40.08,57.64-54.17,26.14-23.92c3.37-3.08,7.23-5.39,9.39-9.13,4.11,2.21,6.96,7.03,9.13,11.09Z"/>
      <path class="cls-13" d="M579.67,573.74l-16.2,14.97-16.39-15.93-41.83-40.96c-1.47-1.43-2.31-2.82-4.28-2.84-.17-8.25,3.85-16.5,9.65-22.34l27.56,26.21,39.36,37.5c1.11,1.05,1.72,2.17,2.13,3.39Z"/>
      <path class="cls-10" d="M884.3,275.99c-1.06.05-2.06-.3-2.74-1.05.93-.19,2.36.17,2.74,1.05Z"/>
      <path class="cls-4" d="M974.45,787.14c-.77,1.58-2.73,1.77-3.84,1.3-.92-.38-2.29-2.21-1.52-3.77l9.55-19.16c.62-1.23,3.35-.87,4.08-.27.84.69,1.25,2.26.52,3.77l-8.8,18.14Z"/>
      <path class="cls-13" d="M697.03,686.64c-1.8,8.4-5.29,16.5-11.92,22.11l-40.46-40.55-25.75-24.56c-.1-6.59,7.39-15.31,13.22-20.01l14.46,14.67,38.5,37.27,11.94,11.06Z"/>
      <path class="cls-4" d="M210.32,424.39c-1.2,2.42-6.3.38-5.46-1.42l9.73-20.86c.7-1.5,2.9-1.9,4.12-1.18,1.11.66,2.03,2.4,1.09,4.3l-9.48,19.16Z"/>
      <path class="cls-4" d="M219.62,783.82c.82,1.81.29,3.49-.35,4.21-1,1.13-3.9,1.13-4.71-.65l-8.69-19.12c-.84-1.85,1.18-3.2,2.33-3.42,2.16-.42,3.18.84,4.12,2.89l7.31,16.08Z"/>
      <path class="cls-4" d="M985.56,421.66c.85,1.85-.98,3.04-1.97,3.48-1.15.51-3.17.85-4.07-.95l-9.31-18.71c-1.01-2.04-.11-4.1,1.68-4.98s3.9.02,5,2.38l8.67,18.77Z"/>
      <path class="cls-13" d="M513.17,504.68l3.91-2.95c.59,1.44.49,2.5-.8,3.64-.78.69-2.13.43-3.11-.69Z"/>
    </g>
  </g>
</svg>