<?xml version="1.0" encoding="UTF-8"?>
<svg id="Layer_1" xmlns="http://www.w3.org/2000/svg" version="1.1" viewBox="0 0 887.1 713.1">
  <!-- Generator: Adobe Illustrator 30.5.1, SVG Export Plug-In . SVG Version: 2.1.4 Build 3)  -->
  <defs>
    <style>
      .st0 {
        fill: #efbd82;
      }

      .st1 {
        fill: #080e1a;
      }

      .st2 {
        fill: #dbac5b;
      }

      .st3 {
        fill: #414f64;
      }

      .st4 {
        fill: #1e3c94;
      }

      .st5 {
        fill: #e7e8e5;
      }

      .st6 {
        fill: #fbdbab;
      }

      .st7 {
        fill: #0f172a;
      }

      .st8 {
        fill: #3a7eed;
      }

      .st9 {
        fill: #3f2513;
      }

      .st10 {
        fill: #0a1322;
      }

      .st11 {
        fill: #946e39;
      }

      .st12 {
        fill: #f8cc91;
      }

      .st13 {
        fill: #c99864;
      }

      .st14 {
        fill: #efc686;
      }

      .st15 {
        fill: #c18b35;
      }

      .st16 {
        fill: #1e3ea4;
      }

      .st17 {
        fill: #324054;
      }

      .st18 {
        fill: #663a1b;
      }

      .st19 {
        fill: #5c3318;
      }

      .st20 {
        fill: #1e3d9c;
      }

      .st21 {
        fill: #235ede;
      }

      .st22 {
        fill: #3a56ae;
      }

      .st23 {
        fill: #734221;
      }

      .st24 {
        fill: #1f41ab;
      }

      .st25 {
        fill: #0f172b;
      }
    </style>
  </defs>
  <path class="st1" d="M797.1,201.1c45,6.8,81.7,45.7,90,90v335c-.8.5-1.1,1.2-1.3,2.6-7.1,45-43.4,78.9-87.7,84.4h-335c-.3-.5-.9-1-1.7-1.2-41.6-7.8-74.6-42.1-84.5-82.6s-.1-4.1-1.8-5.2v-336c.5-.3,1-.8,1.1-1.8,6.7-43.9,41-78,85-84.2s1.6-.3,1.9-1h334Z"/>
  <g>
    <path class="st25" d="M767.1,668.1c-6.9-6.6-23.6-9.8-35-11.9l-4.2-75.5,19.7-4.3c7.2-1.6,13.8-4.1,19.4-8.3v100.1ZM758.3,599c1.5-6,1.6-13.2,0-18.4-1.6-2.8-10.4-2.8-12.1,0-1.6,5.4-1.6,13.1,0,18.5,1.6,2.8,10.7,2.8,12.2-.1ZM758.3,639c1.6-6,1.5-13.2,0-18.4-1.7-2.8-10.5-2.8-12.1,0-1.6,5.3-1.6,13.2,0,18.5,1.7,2.8,10.7,2.8,12.2,0Z"/>
    <path class="st25" d="M534.4,580.6l-3.4,75.4c-11.6,2.2-27.3,5-35.4,11.7l-.4-99.7c11.6,8.2,26,9.4,39.2,12.7ZM516.3,599c1.5-5.9,1.6-13.2-.1-18.4-1.6-2.8-10.4-2.8-12.1,0-1.6,5.4-1.6,13.2,0,18.5,1.7,2.8,10.7,2.8,12.2-.1ZM516.3,639c1.5-5.9,1.6-13.2,0-18.4-1.7-2.8-10.4-2.7-12.2,0-1.5,5.4-1.6,13.1,0,18.5,1.6,2.8,10.7,2.8,12.1-.1Z"/>
    <path class="st21" d="M678.8,650.2l3.4.2c15.7.8,30.9,2.2,46.3,5.1l3.7.7c11.4,2.1,28,5.4,35,11.9,1.7,1.6,2.2,4.1,1.8,6.1-2.2,12.5-51.7,18.2-69.8,19.8-45.5,4-90.4,4-135.9,0-18.3-1.6-69.3-7.4-69.9-20.6s.7-4.3,2.3-5.6c8.1-6.7,23.7-9.5,35.4-11.7l3.6-.7c15.5-2.9,30.7-4.4,46.3-5l3.5-.2c31.7-1.4,62.9-1.7,94.5,0ZM745.8,682.6c8.1-1.9,19.8-6.2,19.2-10.1-1.4-8.8-47.7-15-64-16.5-53.6-4.9-132.2-5.2-183.6,6.9-8.3,2-20.7,6.3-20,10.3s11.7,7.5,19.2,9.4c57.4,13.8,171.8,13.8,229.2,0Z"/>
    <path class="st8" d="M663.1,539.5l23.9,1.3c19.1,1,79.2,7.1,82,20.7.5,2.5-.6,4.6-1.9,6.4-5.6,4.2-12.2,6.8-19.4,8.3l-19.7,4.3-3.5.2c-14.8,2.4-29.7,4.1-44.7,4.6h-3.2c-30.3,1.2-60.5,1.3-90.8.1h-3.2c-14.9-.7-29.9-2.4-44.7-4.8l-3.6-.3c-13.2-3.2-27.7-4.4-39.2-12.7,0-1.7-3-3.7-1.8-6.5s1.9-4,4.2-5.3c16.8-9.8,56.4-14.2,77.8-15.3l22.6-1.2c2.9-.2,4.6,0,4.6,0l3.7-.3c19.3-.4,38.1-.7,56.9.3ZM536.3,549.2c-11.2,1.9-25.3,4.1-34.3,9.3s-4.9,1.7-4.5,4.4,4.9,4.5,7.2,5.5c13.7,5.8,31.6,8.6,47.7,10.3,52.2,5.5,104.3,5.5,156.6.1s36.3-4.8,48.7-10.4c2.1-1,7.1-2.2,7.3-5.7-1.6-4.3-7.8-5.9-11.6-7.2-13.5-4.7-27.8-6.5-42-8.3-36-4.1-72.2-5.1-109.1-3.7-22.7.9-44.3,2.2-66,5.8Z"/>
    <path class="st17" d="M758.3,599c-1.5,2.9-10.5,2.9-12.2.1-1.7-5.4-1.6-13.1,0-18.5,1.7-2.7,10.5-2.8,12.1,0,1.7,5.2,1.6,12.4,0,18.4Z"/>
    <path class="st17" d="M758.3,639c-1.4,2.9-10.5,2.9-12.2,0-1.6-5.4-1.6-13.2,0-18.5,1.7-2.8,10.5-2.8,12.1,0,1.6,5.2,1.7,12.5,0,18.4Z"/>
    <polygon class="st3" points="728 580.6 732.2 656.1 728.5 655.4 724.4 580.9 728 580.6"/>
    <path class="st17" d="M516.3,639c-1.5,2.9-10.6,2.9-12.1.1-1.7-5.4-1.6-13.2,0-18.5,1.8-2.7,10.5-2.8,12.2,0,1.6,5.2,1.6,12.5,0,18.4Z"/>
    <path class="st17" d="M516.3,599c-1.5,2.9-10.5,2.9-12.2.1-1.6-5.4-1.6-13.1,0-18.5,1.7-2.7,10.5-2.8,12.1,0,1.7,5.2,1.6,12.5.1,18.4Z"/>
    <polygon class="st3" points="537.9 580.9 534.5 655.3 530.9 656 534.4 580.6 537.9 580.9"/>
    <path class="st10" d="M745.8,682.6c-57.4,13.8-171.9,13.8-229.2,0-7.5-1.8-18.6-5.7-19.2-9.4s11.7-8.3,20-10.3c51.5-12.1,130-11.8,183.6-6.9s62.6,7.7,64,16.5c.6,3.9-11.1,8.1-19.2,10.1Z"/>
    <path class="st7" d="M676.6,585.6l2.3,64.6c-31.6-1.7-62.8-1.4-94.5,0l1.4-64.5c30.3,1.1,60.5,1.1,90.8,0Z"/>
    <path class="st25" d="M582.6,585.5l-1.8,64.8c-15.6.7-30.8,2.1-46.3,5l3.4-74.5c14.8,2.4,29.7,4.1,44.7,4.7Z"/>
    <path class="st25" d="M724.4,580.9l4,74.6c-15.3-2.8-30.6-4.2-46.3-5.1l-2.5-64.9c15-.6,29.9-2.3,44.7-4.6Z"/>
    <polygon class="st3" points="679.8 585.5 682.2 650.4 678.8 650.2 676.6 585.6 679.8 585.5"/>
    <polygon class="st3" points="585.8 585.6 584.3 650.2 580.8 650.3 582.6 585.5 585.8 585.6"/>
    <path class="st4" d="M757.7,568.4c-12.4,5.6-33.2,8.8-48.7,10.4-52.3,5.4-104.3,5.4-156.6-.1-16.2-1.7-34-4.5-47.7-10.3,1.7-1.1,3-1.5,5.7-1.5h242.6c2.3,0,3.3.5,4.7,1.5Z"/>
    <path class="st20" d="M757.7,568.4c-1.4-1-2.4-1.5-4.7-1.5h-242.6c-2.6,0-4,.4-5.7,1.5-2.4-1-6.8-2-7.2-5.5s3.2-3.6,4.5-4.4c1.8.9,3.8,1.2,6.1,1.2h49c2,0,3.7-.4,5-1.2,19.4,6.5,46.6,6.6,67.5,2.9,4.8-.9,9-2.2,12.7-4.6l4.8,1.2h103.8c.9,0,1.7-.6,2-.9s.3-.9.3-1.6c3.9,1.3,10,2.9,11.6,7.2-.2,3.5-5.1,4.7-7.3,5.7Z"/>
    <path class="st16" d="M753.3,555.5c0,.7,0,1.3-.3,1.6s-1.1.9-2,.9h-103.8s-4.8-1.1-4.8-1.1c1.5-2.4-.6-4.2-2.4-6,.9-1.1,2.3-1.9,4.2-1.9h64c1.5,0,2.5-.6,3.1-1.7,14.1,1.8,28.4,3.6,42,8.3Z"/>
    <path class="st24" d="M711.3,547.2c-.6,1.1-1.6,1.7-3.1,1.7h-64c-1.9,0-3.3.8-4.2,1.9l-9.5-2.4c-21.9-3.9-50.2-4-70.3,3.6-6.6.4-12.4-1.7-20.2-1.1s-3.1-.3-3.8-1.7c21.7-3.6,43.3-4.9,66-5.8,36.9-1.4,73.1-.4,109.1,3.7Z"/>
    <path class="st16" d="M536.3,549.2c.6,1.4,2.1,1.8,3.8,1.7,7.8-.6,13.6,1.4,20.2,1.1-1.8,2.6-.4,4.9,1.9,6.6-1.4.7-3.1,1.1-5,1.1h-49c-2.4,0-4.3-.3-6.1-1.1,8.9-5.2,23-7.5,34.3-9.3Z"/>
    <path class="st22" d="M640.1,550.8c1.7,1.7,3.8,3.6,2.4,6-3.7,2.4-7.9,3.7-12.7,4.6-20.8,3.7-48.1,3.6-67.5-2.9-2.3-1.6-3.7-4-1.9-6.6,20-7.6,48.4-7.5,70.3-3.6l9.5,2.4Z"/>
  </g>
  <g id="c6cXuZ">
    <g>
      <path class="st11" d="M11.3,279.8c-.3-.6-.4-1-.9-1.2v-1.7c0-1.1-.2-2.2-1.4-2.7l-3.5-1.5c-5.1,2.3-5.4,9-4.2,9.4s.4,0,.6,0c.1.4.5.7.8.9,0,1.7,2.1.9,2,2.2-1.8.4-3.7-.1-4.3-2.2-1.3-4.2.4-10.7,5-11.3l25.3-49.4,45.6-80.6L.8,8.9C0,7.4-.1,6.2.3,4.6,1.7,1.4,5.1-.6,8.7.2s2,1.2,2.8,2.5l71.9,126.6L155.3,2.6c.7-1.2,1.3-1.9,2.5-2.4,3.6-.9,7,.9,8.6,4.2.5,1.5.4,2.9-.5,4.5l-75.5,132.8,45.8,80.9,25.1,49.1c4.4.4,6.1,6.7,5.1,10.6s-2.7,3.5-5,2.8c-4.1-1.3-7.7-5.4-6.2-9.8l-28.3-44.9-43.6-76.1-43.1,75.6-28.9,45.4c.7,1.8.7,3.1,0,4.6ZM157,275c-1.9,2-1.2,5.4,1.2,6.9,1,1.7,3.2,2.9,5.1,2.3s1.9-1.3,2.5-2c1-3.1-.5-6.9-3.3-8.4s-3.9-.5-5.4,1.2ZM14.5,266.6c.6-.3.9-1.2,1.1-1.8,1.4,0,3-3,4.5-5.4l3.1-5,6.9-10.9c1-1.6,2.1-2.9,3-4.6l3.4-5.9,2.6-4.2c.8-1.2,1.2-2,1.8-3.2l3.3-5.6,6.1-10.5,1.3-2.7c1.1-2.4,2.6-4.3,3.9-6.7l1.5-2.6,3.1-5.2c.8-1.4,1.5-2.5,2.3-3.9l4-7.7c.9-1.7,2-2.8,2.8-4.4l1.8-3.6,4.3-7.4,3.4-6.1,3.9-6.8,2-3.7c1-1.9,2.8-3.7,3.2-5.8s.6-1.4,1.4-2.1,3.5-5.7,3.5-5.8c.3-1.4,1-1.6,1.5-2.4,1.5-2.7,2.7-5.2,4.4-7.8s2.8-4.7,4.1-7.1l7-12.5,3.7-6c.8-1.3,1.1-3,2.3-4.3s1.5-2.6,2.2-3.9l1.6-2.8c.6-1,1-1.9,1.5-2.9l8.5-15,2.2-4.3c1-2,2.4-3.7,3.6-5.7s1.3-2.6,2.1-4l2.1-3.5,3.2-5.6c.8-1.3,1.5-3.3,3.1-5.8s3.1-5,4.5-7.6l3-5.6c.5-1,.9-1.9,1.5-2.9l1.7-2.8c.8-1.3,1.1-3,2.5-4l.5-1.9c2-2.1,3-4.6,4.2-7.2s2-3.6.7-5.5-3.6-3.2-5.6-2.3-1.9,2.5-2.5,3.5l-1.5,2.7c-.5.9-1,1.6-1.4,2.7s-1.1,1.7-1.5,2.4l-1.7,3.1c-.9,1.6-1.5,2.5-2,4.3l-3.5,5.6c-.6,2-1.1,3.4-2.2,5.1l-1.7,2.7-3.7,6.1c-1.3,2.1-2.1,4.2-3.7,6.1s-2.6,4.9-4.1,7.2l-2.2,3.4c-1,1.6-3.1,5.4-3.5,6.2-.7,1.7-1.8,2.9-2.5,4.4-1.2,2.6-2.3,5-4.1,7.3s-.7,2.5-1.9,3.4l-.7,2c-.8.6-1,1.1-1.2,1.8l-.3,1.5c-1.7.2-2.4,2.9-3.1,4l-1.8,3c-.5.8-.9,1.5-.9,2.4v.7c-.2,0-.4,0-.6,0s-.2.4-.2.7v.5c-1.4,0-2.1,3-3.2,4.6s-1.5,2-1.3,3.3h0c-1.4.4-2.1,1.9-2,3.2v.2c-.9-.1-1,.6-1.3,1.2l-2.7,5c-1,1.9-5,5.9-4.9,8.9v.4c-.9.2-1.6,1.1-2.1,2l-5,9.5c-1.4,2.6-4,5.3-4.9,7.9s-1.7,2.7-2.5,4.1-2,3.9-3.2,5.7-1.1,2.3-1.8,3.5c-1.4,2.4-2.4,4.4-3.5,6.2l-2.6,4.3-3.6,6.2c-.9,1.6-1.7,3.5-2.7,4.9s-2.4,3.6-3.2,5.8-1.5,2.3-2.2,3.5l-2.6,4.6c-1.5,2.7-4.4,7.9-4.3,7.8-1,1.1-1.3,2.5-2.2,3.6s-1.1,2-1.1,3c-2.5,2.5-4.3,6.1-6.1,9.2s-2.3,3.1-3,5.2-1.2,1.3-1.4,2.4-.9,2.7-1.6,3.4c-1.7,1.8-3.3,6.5-5.4,10.1l-2.7,4.9c-.5,2.1-2.1,3.7-2.9,5.6s-.8,1.9-1.5,3.1l-2.2,3.8c-1.2,2.9-2.7,5.3-4.1,8.1l-6.1,12c1.3,1.3,2.4,2,4.1,2.4.7-2.5,3.1-4.3,3.6-7.3ZM158.5,272.5c.2,0,.4,0,.5-.1,1.3-1.1-3.1-6.9-4.8-10.5s-3.9-7.8-5.9-11.5l-5.1-9.5c-1.9-3.6-3.5-7.3-5.9-10.8s-2.2-5.4-4.2-8.4c0-.7.7-2.2-.3-2.6-1.4-.7-1.6-1.6-2-3l-2.9-4.6c-.7-1-.3-2.3-1.4-3.2s-.8-1.8-1.3-2.8l-2.7-4.8c-1.3-2.3-2.4-4.7-3.7-6.9l-3.7-6.4-2.2-4-9.4-16.5-1.7-3.2-4.3-7-2.6-5.1c-1.4-2.6-3-5-4.5-7.7-1-.5-1.9,1.2-2.3,1.9l-1,1.9c-.4.7-.7,1.4-1.2,2.1l-.7,1.3c-.7,1.2-.4,2.3.3,3.4l4,6.9c.8,1.4,1.1,2.7,2,4.1s2.4,3.8,3.4,5.8l2.7,5,3.3,6c1.5,2.7,3.1,5.2,4.6,7.9s2.6,2.9,3.2,4.9,2.2,4.8,3.5,7l7.6,13c1.2,2.1,2.3,4.1,3.4,6.3s2,3.1,2.9,4.7,1.3,2.6,2.2,4l3.7,5.4c1.2,1.7,2.2,4.7,4.6,7.3s1.4,2.1,1.9,2.9c1.3,2.6,3,4.8,4.5,7.3l3.9,6.6,4.1,6.4c.5.7.7,1.3,1.5,1.1l.3.8c.6,2,1.9,4.3,3.9,5.2s1.5-.4,1.8-.8ZM78.3,137.9c.1-.2.4-.5.6-.6.8-.9,1.1-2.1,1.6-3.1s.7-1,.7-1.7c0-.2.4-.6.7-.9-1.5-2.5-3.2-5.1-4.6-7.7l-4.5-8.1-6.8-12.2c-.7-1.2-1.1-2.3-1.9-3.4l-2.7-4.1c-.8-1.2-1.1-2-1.7-3.2l-2-4.1-4.6-8.2c-.7-2.2-.7-4-2.3-5.9s-1.2-2.3-1.8-3.3l-9-15.3-1.9-3.7c-1-1.8-1.7-3.7-3.2-5.3s-1.2-2.7-1.7-4l-1.9-2c-.5-1.9-1.4-3-2.4-4.6l-4.9-8.4c-1.1-1.9-2-4-3.7-5.6l-.3-2.5c-1.3-.4-1.6-1.3-2.2-2.3l-4.2-7.4c-.9-1.6-1.5-2.8-2.8-4.3s-.4-3-1.9-3.7-3.4-.6-4.7,0-1.9,1.9-3,2.8c1,3.7,2.8,7,5,10.1l1.2,2.8c2.6,3.4,3.4,7.4,4.7,8.3l1.4,2.9c1.7,2,2.6,4.2,3.8,6.4s1.9,3.1,2.9,4.8l2.1,3.9,3.1,5.3,5.3,9.6c1,1.8,2.1,3.4,3.1,5.3l2.8,5.3,5,8.9,3.8,6.5c.7,1.2,1.1,1.7,1.7,2.8l1.6,3c.5,1,1.1,2.3,1.8,3.4l4.8,8.2,4.1,7.2,2.4,4,2,3.7c.6,1.1,1.4,1.9,1.9,3l2.7,5.4c1.7,2.1,2.8,4.4,4.1,6.8l2.6,4.7c.2.4.3.7.6.8s.6,0,.8-.2c-.1.6,0,1.3.7,1.9l1-1.9Z"/>
      <path class="st15" d="M4.8,285.1c0-1.3-2-.4-2-2.2,1.6-.2,2.9.7,3.7.2s.5-.6.5-1h.4c.7,0,1.5-.5,1.9-1.3l1.3-2.2c.4.2.6.6.9,1.2-1.4,2.7-3.6,4.6-6.5,5.3ZM5.8,284.6l.2-.2-.2-.2-.2.2.2.2Z"/>
      <path class="st15" d="M15.6,264.8c0-1.3.8-2,1.5-3.1s.7-2.4,1.7-3.1,2-2.5,1.7-4c.7-.7,1.1-2,2-2.3s4.5-6,6.1-9,2.8-3.8,3.1-6.1c1.6-1.8,2.6-5.2,4.9-8s1.3-1.3,1.7-2.5,1.2-2,1.6-2.9l.7-1.5c.6.2,1.1,0,1.3-.6s.5-1.2.4-1.9v-.4c.2.1.9-.3.9-.6,0-1.2,1.1-1.3,1.4-1.9l3.7-6.6c1-3.2,3.2-5.5,4.8-8.3l6-10.6c.6-1,1.6-2.2,1.9-3.2,1.1-2.8,2.7-4.8,4-7.3l3.2-6.2c.5-.9,1.1-1.4,1-2.3v-.2c1.1.2,1.2-.8,1.5-1.4l2.1-4c1.1-2.1,2.4-3.8,3.4-5.9s3.6-5.5,4.6-8.4,1.5-2.2,1.6-3.6v-.7c.2,0,.5,0,.6-.1.2-.2.2-.5.3-.8l.4-.9c1.2.3,2.5-2,2.3-3.6h.5c.5.2.6-.5,0-.4-.3-.5.2-1.1.1-1.5.4,0,.6-.2.9-.5s.4-.5.4-.9v-.4s.9-1.2.9-1.2c.3-.4.7-.7.7-1.2,0-.5,0-.9.3-1.4l.3,1.5c.5-.9.4-1.9.6-2.9l.3-1.3c1,.3,1.5-.5,1.9-1.3l4.1-7.1c1.4-1.4,1.9-2.3,2.5-4.2s2.2-4.5,3.5-6.4,2.5-4.1,3.8-6.3l2.7-4.6c.7-1.2,1.1-2.3,1.7-3.5.9-2,2.1-3.8,3-5.9l1.9-2.9c.7-2.3,2.4-3.8,3.5-5.8,1.6-3.2,2.6-6.4,5-9.3l.6-2.2c1.3-.8,1.4-2.1,2.1-3.4s1.9-2.1,1.7-3.4l.4-1c.7,0,1-.5,1.4-1.2l2.4-4.5,2.5-4.4c.5-.8,1.1-1.6,1-2.6v-.4c.4,0,.5-.3.8-.8l1.1-1.7,2.7-4.5,1.4-3c.7-1.5,1.6-2.7,2.3-4.2,1.1-2.3,2-4.5,3.5-6.7l2.2-3.4c1.1-1.8,1.4-3.7,3-5.3s1.1-2.7,1.8-3.8,1.3-2.1,1.9-3.4l2.6-5.4c-2.2-.9-3.1,1.1-4.2,2.3s-1.8,1.8-2.6,3.3l-1.5,2.8c-.7,1.4-1.9,2.1-2.2,3.9l-2.3,2.7c-.7,2.1-2.3,3.3-3.4,5.1l-4.2,6.9-5.2,8.9-2.7,4.2c-1.8,2.7-3,5.2-4.6,8l-2,3.3-1.6,3.3c-.5,1-1.2,2.3-1.8,3.3l-2.9,4.5c-1.5,2.4-3,4.6-3.9,7.3s-1.4,1.7-2.1,1.6c.1-.8.4-1.3,1.2-1.8l.7-2c1.2-.9,1.2-2.4,1.9-3.4,1.7-2.3,2.8-4.8,4.1-7.3s1.9-2.6,2.5-4.4,2.5-4.6,3.5-6.2l2.2-3.4c1.5-2.3,2.4-5.2,4.1-7.2s2.4-4,3.7-6.1l3.7-6.1,1.7-2.7c1.1-1.7,1.6-3.1,2.2-5.1l3.5-5.6c.5-1.8,1.1-2.7,2-4.3l1.7-3.1c.4-.8,1.2-1.7,1.5-2.4.4-1.1.9-1.8,1.4-2.7l1.5-2.7c.6-1,1.1-2.9,2.5-3.5s4.4.5,5.6,2.3.2,3.7-.7,5.5c-1.3,2.5-2.2,5.1-4.2,7.2l-.5,1.9c-1.4,1-1.7,2.7-2.5,4l-1.7,2.8c-.6,1-1,1.9-1.5,2.9l-3,5.6c-1.4,2.6-2.8,5.2-4.5,7.6s-2.4,4.5-3.1,5.8l-3.2,5.6-2.1,3.5c-.8,1.4-1.3,2.6-2.1,4-1.1,2-2.6,3.7-3.6,5.7l-2.2,4.3-8.5,15c-.6,1-.9,1.9-1.5,2.9l-1.6,2.8c-.7,1.3-1.1,2.8-2.2,3.9s-1.4,2.9-2.3,4.3l-3.7,6-7,12.5c-1.3,2.4-2.6,4.8-4.1,7.1s-2.9,5.1-4.4,7.8-1.2,1-1.5,2.4-2.8,5.2-3.5,5.8-1.2,1.1-1.4,2.1c-.4,2.1-2.2,3.9-3.2,5.8l-2,3.7-3.9,6.8-3.4,6.1-4.3,7.4-1.8,3.6c-.8,1.6-1.9,2.7-2.8,4.4l-4,7.7c-.7,1.4-1.4,2.5-2.3,3.9l-3.1,5.2-1.5,2.6c-1.3,2.3-2.8,4.3-3.9,6.7l-1.3,2.7-6.1,10.5-3.3,5.6c-.7,1.1-1.1,2-1.8,3.2l-2.6,4.2-3.4,5.9c-1,1.6-2,3-3,4.6l-6.9,10.9-3.1,5c-1.5,2.4-3,5.3-4.5,5.4Z"/>
      <path class="st15" d="M81.2,132.5c-.9,0-1.1-.8-1.2-1.5s0-1-.3-1.3c-1.6-1.9-2.5-4.3-3.8-6.3s-1.6-2.9-2.5-4.5l-2.3-3.7c-1.6-2.6-2.9-5.3-4.5-8l-2.2-3.9c-1.4-2.5-2.8-4.7-4.1-7.2l-5.5-9.9-5.1-9-3.4-5.5c-1.6-2.6-2.7-5.2-4.5-7.7s-.5-2.4-1.6-3.3-1.7-3.5-2.7-4.9-1.6-1.6-2-3.1l-2.7-4c-.5-2.2-1.6-4.1-3.6-5.5-.4-2.3-1.5-4.3-3-6.2-1.4-3.2-3.9-5.6-5.7-8.3l-2.7-4.2-2.3-3c-1.2-1.6-1.9-3.3-3.4-4.7-2.6-2.6-2.4-4.5-3.3-5s-.8,0-1,.2c-.3.6.3.9.5,1.4,2.7,6,5.5,11.7,9,17.3l1.2,3.3c.5,1.5,1.8,2.7,2.2,4.3s1.2,2,1.8,3.1l3.1,5.4c.9,1.5,1.3,3.3,2.9,4v.7c0,.8.3,1.7,1.2,1.8v.7c0,1.2,1.1,2.3,1.8,3.5l2.7,5,2.9,4.8,5.2,9.7,3.1,5,3.6,6.5c1.6,3.9,3.7,7.2,5.8,10.8l5.3,9.3c.3.6.6.9,1.2.8l.5,1.7,1.1,2.8c.4.9.8,1.6,1.7,1.6,0,.1,0,.4,0,.5.4,2,1.8,3.7,2.8,5.6s1.1,2.8,2.6,3.1c0,.1,0,.3,0,.4.1,1.5,1.2,2.6,2,4.1s.4,1.4,1.2,1.3v.7c0,1.2,1,2.2,1.5,3.4s.7,2.1,1.9,2v1.4c.1,0,0,.3,0,.3-.2.1-.6.2-.8.2-.4-.1-.4-.4-.6-.8l-2.6-4.7c-1.3-2.3-2.4-4.6-4.1-6.8l-2.7-5.4c-.5-1.1-1.3-1.9-1.9-3l-2-3.7-2.4-4-4.1-7.2-4.8-8.2c-.7-1.1-1.2-2.4-1.8-3.4l-1.6-3c-.6-1.1-1-1.6-1.7-2.8l-3.8-6.5-5-8.9-2.8-5.3c-1-1.8-2.1-3.5-3.1-5.3l-5.3-9.6-3.1-5.3-2.1-3.9c-.9-1.7-1.9-3.2-2.9-4.8s-2.1-4.4-3.8-6.4l-1.4-2.9c-1.3-.9-2.1-4.9-4.7-8.3l-1.2-2.8C4,11.9,2.2,8.7,1.2,4.9c1-.9,1.7-2.3,3-2.8s3.5-.4,4.7,0,1.2,2.8,1.9,3.7c1.2,1.5,1.9,2.7,2.8,4.3l4.2,7.4c.6,1,.8,2,2.2,2.3l.3,2.5c1.8,1.6,2.6,3.6,3.7,5.6l4.9,8.4c.9,1.5,1.9,2.7,2.4,4.6l1.9,2c.5,1.3.6,2.9,1.7,4,1.6,1.5,2.3,3.4,3.2,5.3l1.9,3.7,9,15.3c.6,1,1.1,2.6,1.8,3.3,1.6,1.9,1.6,3.7,2.3,5.9l4.6,8.2,2,4.1c.6,1.2,1,2.1,1.7,3.2l2.7,4.1c.7,1.1,1.2,2.2,1.9,3.4l6.8,12.2,4.5,8.1c1.4,2.6,3.2,5.2,4.6,7.7-.4.4-.7.7-.7.9Z"/>
      <path class="st2" d="M90.9,121.2v-.4c1.4-.2,2.5-2.9,3.5-4.6l4.9-8.5c.4-.7.6-1.2.6-2v-.2c1-.6,1.9-1.9,2-3.1h0c.8-.1,1-1.1,1.4-1.7,1.4-1.8,3.2-5.5,3.1-6.3v-.5c.2.2.6.2.7-.1s0-.4,0-.6v-.7c.8-.3,1.3-1.1,1.8-1.9l3.1-5.4c.5-.8.7-1.3.9-2.1l.3-1.5c.7,0,1.8-.8,2.1-1.6.9-2.7,2.4-4.9,3.9-7.3l2.9-4.5c.6-.9,1.3-2.2,1.8-3.3l1.6-3.3,2-3.3c1.6-2.7,2.8-5.3,4.6-8l2.7-4.2,5.2-8.9,4.2-6.9c1.1-1.8,2.6-3.1,3.4-5.1l2.3-2.7c.3-1.8,1.5-2.5,2.2-3.9l1.5-2.8c.8-1.5,1.5-2.1,2.6-3.3s1.9-3.2,4.2-2.3l-2.6,5.4c-.6,1.3-1.2,2.2-1.9,3.4s-.8,2.8-1.8,3.8c-1.6,1.5-1.8,3.5-3,5.3l-2.2,3.4c-1.4,2.2-2.3,4.4-3.5,6.7s-1.6,2.6-2.3,4.2l-1.4,3-2.7,4.5-1.1,1.7c-.3.5-.5.8-.9.8,0-1.2.8-2,1.4-3.1l3.9-7.1,3.3-6.4c.3-.6,1.1-1.1.7-2-2.2.3-2.7,2.4-3.6,4l-2.3,4.2-2.3,3.3-1.8,2.7c-1.8,2.7-2.7,5.9-5.3,8.2,0,1.9-.8,3.8-2.1,5.1s-1.2,2.3-1.8,3.5c-1,1.8-2.8,3-3,5.1l-.4,1.2c-.9.2-1.5,1.1-1.6,2s0,.3,0,.4c-.3-.2-.7,0-.7.2-.1.4,0,.7,0,1v.3c-.3,0-.6.1-.7.3s0,.5,0,.6c-.2,1.2-1.7,1.9-2.1,3.1l-1.1,3c-1.5.2-2.4,2-2.5,3.3s0,.3,0,.4c-.8.1-1.7.9-2.1,1.8-2,4.5-5.1,7.7-7.5,12.9-.6,1.4-1.3,2.2-2,3.4l-2.3,3.8-7.1,11.9c-2.3,3.9-5.6,8-7,11.9s-.7.4-.9.5c-.4-.5-.2-.9.2-1.5l4.2-7.6c.4-.7.6-1.2.6-1.8Z"/>
      <path class="st14" d="M141.8,248.7l-.7-1.6c-1.5-3.2-3.4-6.1-5.8-8.6.1-.1,0-.2,0-.3,0-.3,0-.6-.2-.8s-.4-.1-.6,0l-.8-2.1c-.2-.7-.5-1.2-1.3-1.3-.1-1.3-3-4.8-5.1-9.4s-1.3-1.7-1.8-2.6l-2.4-4.4-7.4-12.8-6.6-11.7c-1.3-2.3-2.6-4.4-3.8-6.7s-3-5.5-4.2-7.2c-2.2-3.3-3.7-6.7-5.7-10.2l-2.5-4.3c-1.4-2.4-2.7-4.6-3.8-7.1s-1.4-2-2.1-3.1l-2-3.2.7-1.3c1.3,2.4,2.3,4.9,4.1,7.1l2.2,4.3c3.3,5,5.9,10.2,8.9,15.3l8.2,14,3.1,5.8,4.8,8.2.8.6c.2.2,1-.2.9-.5-1.3-4.5-4.8-10.6-7.5-14.8.2-2.1-.7-2.8-2.1-4.1s-3-6.1-4.4-7.3l-.8-1.9c-1.6-1.5-4-6.2-5.3-9.1s-1.5-2.1-2-3.2l-2.9-5.5-3.4-5.7c-.8-1.4-1.9-2.5-2.3-4.2s-.6-1.1-1.1-1.3l1-1.9c.8,0,.7.7.9,1.1l4.4,7.4,2.7,5.7c.3.7.3,1.8,1.3,1.9l.3.8c0,.2,0,.7.3.8s.5.1.7,0c.1.4.4.7.3,1.2s0,.6.2.8.4.1.6.1c.1.6.7,1.2.8,1.9s0,.6.3.8.4.1.6.1c.3,1.2.7,2.6,2.1,3,.8,2.7,2.5,4.8,3.6,7.3l1,2.2c.2.3.2.9.9.8,0,.2,0,.5,0,.7.2,1.1.8,2.7,2,2.8l.9,1.5c.6,1.8,1.9,3,2.6,4.7l1.3,3.1c.2.4.1,1.2,1,1.2.5.2.5.9.7,1.2-.5,1.1,0,2.5,1.2,2.6,0,.2.3.5.4.7,0,.7.4,1.6,1.2,1.6v.7c0,.8.3,1.7,1.3,1.8.1.5.5,1.1.4,1.7s.1,1.2.6,1.6c1.5,1.6,2,5.3,5,9.6s3,5.6,4.5,8.5l1.5,2.9c1.1,2,2.3,3.7,3.1,5.8l1.8,2.6c1.6,4.4,5.2,9.6,7.9,15.2s1.9,1.9.6,3.2l-3.6-5.5c-.5-.7-.8-1.4-1.6-1.6Z"/>
      <path class="st15" d="M90.9,121.2c0,.6-.3,1.2-.6,1.8l-4.2,7.6c-.3.6-.5,1-.2,1.5-1.5.3-.9,1.6-1.4,3.2-1.1-.3-1.3.4-1.8,1.2-1.2,2.1-2.3,4-3.2,6.2l-2.1,3.4v1.3c-.6,0-1.1.4-1.5,1.1l-3.6,6.6c-1.5,2.8-3.1,5.5-4.7,8.3l-2.2,3.8c-.6,1-1.4,1.9-1.4,3.1v.3c0,0-.8,0-1,.3-1.3,3.5-4.7,8.7-6.9,12.8l-4,7.3c-.7,1.3-1.8,2.7-2.3,4-2.2,5-5.2,8.7-7.7,13.4l-4.5,8.5-2.1,4.3c-.5,1.1-1.4,1.8-1.9,3-.7,1.9-2.2,3.4-2.3,5.6-1.5.7-2.1,1.9-2.2,3.5-2.2,2.5-2.9,5.7-4.6,8.4-2.8,4.6-5.4,10.5-6,11.3-1.4,1.9-2.2,3.7-3.3,5.7l-3.1,5.8c-.8,1.4-1.9,3.1-.4,4.5.9-1.3,1.5-2.2,2.5-2.6-.5,2.9-2.9,4.8-3.6,7.3-1.7-.4-2.9-1.1-4.1-2.4l6.1-12c1.4-2.7,2.9-5.2,4.1-8.1l2.2-3.8c.6-1.1,1-1.8,1.5-3.1.7-1.9,2.4-3.5,2.9-5.6l2.7-4.9c2-3.6,3.7-8.4,5.4-10.1s1.4-2.4,1.6-3.4,1.2-1.7,1.4-2.4c.7-2.1,2-3.4,3-5.2,1.7-3.2,3.6-6.7,6.1-9.2,0-1,.5-2.2,1.1-3s1.1-2.5,2.2-3.6c0,0,2.7-5.1,4.3-7.8l2.6-4.6c.7-1.2,1.8-2.4,2.2-3.5.8-2.3,1.8-3.9,3.2-5.8s1.8-3.3,2.7-4.9l3.6-6.2,2.6-4.3c1.1-1.9,2-3.8,3.5-6.2s1.1-2.4,1.8-3.5c1.3-1.9,2.1-3.8,3.2-5.7s1.8-2.4,2.5-4.1c1-2.5,3.6-5.2,4.9-7.9l5-9.5c.5-1,1.2-1.8,2.1-2Z"/>
      <path class="st15" d="M152.7,268.1c1.8.1,2.1,2.6,3.4,3.1s1.1-.9,1.1-1.4-.9-1-1.1-1.5l-3.3-6.8c-1-2.1-2.1-3.8-3.2-5.8s-1.2-3.6-2.6-5.2l-.7-2c-2.4-3-4-6.2-5.8-9.5l-3.3-5.9c-.8-1.4-1.4-2.6-2.1-4l-2.7-5.4-4-7.4-2.9-5.6c-1-1.9-2-4.8-3.4-4.6,0-.6-.3-1.1-.4-1.7-.2-.8-.3-1.6-1.2-1.8v-.7c0-.8-.4-1.7-1.3-1.6-.1-.2-.4-.5-.4-.7,0-1-.7-1.9-1.2-2.6-.2-.3-.2-1-.7-1.2,0-.2,0-.7-.2-.9s-.4-.4-.8-.3l-1.3-3.1c-.7-1.7-2-2.9-2.6-4.7l-.9-1.5c-.6-.9-.8-2.5-2-2.8,0-.2,0-.5,0-.7s0-.4,0-.6-.5-.3-.9-.2l-1-2.2c-1.1-2.5-2.8-4.6-3.6-7.3-1.4-.5-1.8-1.9-2.1-3v-.6c-.2-.2-.5-.4-.9-.3,0-.7-.7-1.4-.8-1.9v-.6c-.2-.2-.5-.4-.8-.3,0-.5-.2-.8-.3-1.2s-.3-.9-.9-.9l-.3-.8v-1.3c-.1-.6-.8-.8-1.3-.6l-2.7-5.7-4.4-7.4c-.2-.4-.1-1.2-.9-1.1.4-.7,1.2-2.4,2.3-1.9,1.4,2.7,3.1,5,4.5,7.7l2.6,5.1,4.3,7,1.7,3.2,9.4,16.5,2.2,4,3.7,6.4c1.3,2.2,2.4,4.6,3.7,6.9l2.7,4.8c.5.9.4,2,1.3,2.8s.7,2.1,1.4,3.2l2.9,4.6c.5,1.4.6,2.3,2,3s.3,2,.3,2.6c2.1,3,3.4,7.3,4.2,8.4,2.4,3.5,3.9,7.1,5.9,10.8l5.1,9.5c2,3.7,4,7.6,5.9,11.5s6.1,9.5,4.8,10.5-.4.1-.5.1c-.2-.3-.7-.8-1.1-.7-.6.1-.8,1.1-.8,1.5-2-.9-3.3-3.2-3.9-5.2Z"/>
      <path class="st14" d="M48.9,84.8c-1.6-.9-2.2-2.9-3.2-4.5l-3.8-6.7-3.2-5.7c-2.1-3.8-4.3-7.3-6.1-11.2s-1.6-1.3-1.7-2.3-.6-.8-1-.7v-.7c0-.8-.3-1.6-1.2-1.8v-.7c0-.8-.5-1.2-.9-2l-4-7.3c-.9-1.7-2.4-3.3-1.3-5.4.8.5,1.9,1.4,2.1,2.2.5,2,1.9,3.3,2.8,4.9s1.4,3.2,2.8,4.7l3.5,6c.7,1.2,2.5,3.5,4.3,6.7l2.1,3.6c1.1,1.8,2.6,3.2,3,5.5l1.5,1.7c.8,2.5,2.4,4.3,3.6,6.5s1.3,3.2,2.8,4.5l1.7,3.5,4.5,7.3c2.2,3.6,4.3,7,6.2,10.7s1.9,2.7,2.6,4.4,2.6,4.1,3.7,6.4,3.6,6.1,5.3,9.2l3.9,6.9c.3.4.7.6,1.1.6.1.7.3,1.6,1.2,1.5,0,.7-.5,1.2-.7,1.7-1.8-.6-1.9-2.4-2.8-3.8l-2-3.3-2-3.2c-1-1.7-1.8-3.2-2.8-4.9l-2.5-4.4c-.9-1.5-1.5-2.7-2.2-4.4l-3.3-4.6-2.5-4.4c-1.4-2.5-2.8-5.4-3.3-6-1-1.2-1.2-1.9-1.7-3.3l-3.6-5.1c-.9-1.3-1.1-2.8-2.6-3.8-.5.6-.3,1.3-.3,1.8Z"/>
      <path class="st15" d="M85.2,151.2l2,3.2c.7,1.2,1.6,2.1,2.1,3.1,1.1,2.5,2.5,4.7,3.8,7.1l2.5,4.3c2,3.4,3.5,6.9,5.7,10.2s3.3,5.3,4.2,7.2,2.5,4.4,3.8,6.7l6.6,11.7,7.4,12.8,2.4,4.4c.5.9,1.4,1.7,1.8,2.6,2.1,4.6,5,8.1,5.1,9.4s0,.6.2,1,.7.4,1.1.3l.8,2.1c0,.1,0,.4,0,.6s.4.4.7.3c0,0,0,.2,0,.3,1.4,3.1,3.1,6.3,5.8,8.6l.7,1.6c-.1-.1-.6.2-.4.3,2,2.1,3,4.9,4.7,7s2.5,4,3.7,6.2,2.1,3.2,2.7,5.1c-.9.2-1.1-.4-1.5-1.1l-4.1-6.4-3.9-6.6c-1.5-2.5-3.2-4.6-4.5-7.3s-1.3-2.2-1.9-2.9c-2.4-2.6-3.5-5.5-4.6-7.3l-3.7-5.4c-.9-1.3-1.4-2.6-2.2-4s-2.1-3.1-2.9-4.7-2.2-4.2-3.4-6.3l-7.6-13c-1.3-2.3-2.7-4.5-3.5-7s-2.3-3.2-3.2-4.9c-1.5-2.8-3.1-5.2-4.6-7.9l-3.3-6-2.7-5c-1.1-2-2.1-4-3.4-5.8s-1.2-2.7-2-4.1l-4-6.9c-.7-1.2-1-2.2-.3-3.4Z"/>
      <path class="st2" d="M64.2,170.5c0,1.9-2.5,5.3-4.1,8.1l-2.4,4.4c-1,1.8-2,3-2.2,5.1s-.9,1.2-1,1.7l-.3,1.6c-1.2.5-1.4,1.8-2.1,2.9l-2.5,3.9c-.8,1.9-2,3.4-2.9,5.1l-5.6,10.7c-.5,1-1,1.7-1.3,2.9-1.9,2.6-3,5-4.4,7.6l-4.2,7.9-6.2,11.5c-.7,1.3-1.3,2.1-1.9,3.5l-2.6,5.9c-.3.7,0,1,.1,1.3.3,1.5-.5,3-1.7,4s-1.1,2.2-1.7,3.1-1.6,1.7-1.5,3.1c-.3.6-.5,1.5-1.1,1.8-1,.4-1.5,1.3-2.5,2.6-1.6-1.4-.4-3.1.4-4.5l3.1-5.8c1.1-2,1.8-3.8,3.3-5.7s3.1-6.7,6-11.3,2.5-5.9,4.6-8.4c0-1.6.7-2.8,2.2-3.5.1-2.2,1.6-3.8,2.3-5.6s1.4-1.9,1.9-3l2.1-4.3,4.5-8.5c2.5-4.7,5.5-8.4,7.7-13.4.6-1.3,1.6-2.7,2.3-4l4-7.3c2.3-4.2,5.6-9.3,6.9-12.8s.9-.3,1-.3Z"/>
      <path class="st6" d="M85.9,149.8c.4-.7.8-1.4,1.2-2.1.5.3,1,.7,1.1,1.3.4,1.7,1.5,2.8,2.3,4.2l3.4,5.7,2.9,5.5c.6,1.1,1.6,2.1,2,3.2,1.3,2.8,3.7,7.6,5.3,9.1l.8,1.9c1.4,1.3,2.6,5.7,4.4,7.3s2.3,2,2.1,4.1c2.7,4.2,6.2,10.3,7.5,14.8s-.7.6-.9.5l-.8-.6-4.8-8.2-3.1-5.8-8.2-14c-3-5.1-5.6-10.3-8.9-15.3l-2.2-4.3c-1.7-2.2-2.7-4.7-4.1-7.1Z"/>
      <path class="st6" d="M55.3,96.7l-1.6-3.3c0-.2.1-.7,0-1s-.5-.3-.8-.4c-.7-1-1.7-2.2-2-3.5s-.5-2.3-1.6-2.5l-.4-1.2c0-.6-.2-1.2.3-1.8,1.5,1,1.7,2.6,2.6,3.8l3.6,5.1c.5,1.4.7,2.1,1.7,3.3s1.9,3.5,3.3,6l2.5,4.4,3.3,4.6c.7,1.6,1.3,2.8,2.2,4.4l2.5,4.4c1,1.7,1.8,3.3,2.8,4.9l2,3.2,2,3.3c.9,1.4.9,3.2,2.8,3.8-.6,1-.8,2.2-1.6,3.1-.7,0-.6-.6-.9-1.1l-5.3-8.9-6.4-11.4-2.6-5.1c-.7-1.4-1.4-2.5-2.2-4l-4.8-8.8c-.4-.7-.7-1.4-1.4-1.3Z"/>
      <path class="st2" d="M152.7,268.1l-.3-.8c-.5-1.9-1.8-3.3-2.7-5.1s-2.1-4.2-3.7-6.2-2.7-4.9-4.7-7,.3-.5.4-.3c.8.2,1.1.9,1.6,1.6l3.6,5.5c1.3-1.4,0-2.3-.6-3.2-2.7-5.6-6.3-10.8-7.9-15.2l-1.8-2.6c-.9-2.1-2.1-3.8-3.1-5.8l-1.5-2.9c-1.5-2.9-2.6-5.8-4.5-8.5-2.9-4.3-3.4-8-5-9.6s-.7-1.1-.6-1.6c1.4-.2,2.5,2.7,3.4,4.6l2.9,5.6,4,7.4,2.7,5.4c.7,1.4,1.3,2.6,2.1,4l3.3,5.9c1.8,3.3,3.4,6.6,5.8,9.5l.7,2c1.4,1.6,1.7,3.5,2.6,5.2s2.2,3.7,3.2,5.8l3.3,6.8c.3.5,1.2.9,1.1,1.5s-.6,1.6-1.1,1.4c-1.3-.6-1.6-3-3.4-3.1Z"/>
      <path class="st14" d="M76.7,137.6v-1.4c-.2-1.2-.9-1.9-1.5-2.9s-.8-2.4-2-2.5v-.7s-2.1-4.4-2.1-4.4c-.3-.6-.6-.9-1.1-1,0-.1,0-.3,0-.4-.9-2.6-2.6-4.8-4-7.4s-.5-1.5-1.4-1.4c0-.1,0-.4,0-.5-.5-2-1.5-4.4-2.8-4.3l-.5-1.7c-.2-.8-.7-1.6-1.2-2.5l-2.5-4.4c-1.1-1.9-2.1-3.6-2.5-5.6.7,0,1.1.6,1.4,1.3l4.8,8.8c.8,1.4,1.5,2.5,2.2,4l2.6,5.1,6.4,11.4,5.3,8.9c.3.5.2,1.2.9,1.1-.2.2-.5.4-.6.6l-1.6-.3Z"/>
      <path class="st15" d="M157,275c1.6-1.7,3.5-2.3,5.4-1.2s4.3,5.3,3.3,8.4c-.5.7-1.6,1.7-2.5,2-1.9.6-4.1-.6-5.1-2.3-2.4-1.5-3.1-4.8-1.2-6.9ZM158.7,281.7c.5.9,1,.7,2.1,1.1s.7.9,1.5.5,1.2-.8,1.6-1.3c1.4-2,1.2-3.8-.5-5.3s-2.1-1.8-3.5-1.5-2.7,1-2.8,2.4,1,3,1.6,4.1Z"/>
      <path class="st2" d="M2.7,283c-.3-.2-.7-.5-.8-.9v-3.2c.9-3.4,4.7-4.7,7.6-3.2.2.5.5,1,.9,1.2v1.7s-1.3,2.2-1.3,2.2c-.5.8-1.2,1.4-1.9,1.3,0-.3,0-.7,0-.9.9-.5,1.4-2.5.6-3.3s-4.5.5-4.2,2.7.4,1.5,1.2,1.5h2c0,.4-.2.8-.5,1-.8.5-2.1-.5-3.7-.2Z"/>
      <path class="st15" d="M10.4,276.9c-.4-.1-.7-.7-.9-1.2-2.9-1.5-6.7-.2-7.6,3.2v3.2c-.2,0-.4,0-.6,0-1.2-.3-.9-7,4.2-9.4l3.5,1.5c1.2.5,1.4,1.6,1.4,2.7Z"/>
      <path class="st15" d="M90.9,120.8c0-2.9,3.8-7,4.9-8.9l2.7-5c.3-.6.4-1.4,1.3-1.2,0,.8-.2,1.3-.6,2l-4.9,8.5c-1,1.7-2.1,4.4-3.5,4.6Z"/>
      <path class="st15" d="M107.1,92.6c0-.9.4-1.5.9-2.4l1.8-3c.7-1.1,1.4-3.9,3.1-4-.1.8-.4,1.3-.9,2.1l-3.1,5.4c-.5.8-1,1.7-1.8,1.9Z"/>
      <path class="st15" d="M101.8,102.4c-.2-1.3.6-2.3,1.3-3.3,1.1-1.5,1.8-4.6,3.3-4.6,0,.8-1.8,4.4-3.1,6.3s-.5,1.6-1.4,1.6Z"/>
      <path class="st15" d="M99.8,105.5c0-1.3.6-2.8,2-3.1,0,1.2-1,2.4-2,3.1Z"/>
      <path class="st2" d="M76.6,138v-.3c0,0,1.7.3,1.7.3l-1,1.9c-.8-.6-.8-1.2-.7-1.9Z"/>
      <path class="st2" d="M156.7,273.3c0-.4.2-1.4.8-1.5s.8.4,1.1.7c-.3.3-1.3,1-1.8.8Z"/>
      <path class="st15" d="M106.3,94c0-.3,0-.6.2-.7s.4,0,.6,0c0,.2,0,.4,0,.6s-.5.3-.8.1Z"/>
      <path class="st6" d="M4.8,282.2c0-.7-.2-1.5.1-2.3s1.6-1.3,2.4-.7c-.3.9-.5,1.5-.2,2.1s0,.6,0,.9h-.4s-2,0-2,0Z"/>
      <polygon class="st11" points="5.8 284.6 5.6 284.4 5.8 284.2 6 284.4 5.8 284.6"/>
      <path class="st6" d="M54.1,191.5l.3-1.6c1.4,0,1.7-1,2.3-2.2l1.4-2.6c.6-1.1,1.3-2,1.5-3.3,1.3-1.5,2.4-3.1,2.5-5.2,1.9-2.5,3.7-5,5-7.9s1-2.8,2.1-4l3.2-5.7,1.8-2.6c1.3-2,2.2-3.9,3.4-6l4.3-7.4c.6-1.1,1-2.1,1.6-3.3s1.5-1.7,1.2-3c.6,0,1.6-.3,1.7-.7.2-.7-.1-1.4.5-2.5.5.5,0,1.1.5,1.9.1-2.2,1.1-3.8,2.2-5.7l2.3-3.8,5.7-10c1.7-2.9,3.5-5.3,3.7-5.6l2.1-3.9c1.9-3.6,3.3-7.5,6-10.6,2.3-2.6,2-5.4,4-7.4s1.6-1.4,1.3-2.6,0-.3,0-.4c1.5-.4,2-2.1,2.5-3.3l1.1-3c.4-1.2,1.9-2,2.1-3.1.1,0,.4,0,.5-.1.2-.2.2-.6.2-.9v-.3c.3,0,.7,0,.8-.3s0-.6,0-.9,0-.3,0-.4c1.1,0,1.3-1.1,1.6-2l.4-1.2c1.9-.9,2-3.8,4.1-3l-10.5,19.3c-1.7,3-3.8,5.2-4.1,7.3-.8-.1-2.4,2.5-2.4,3.2v.6c-.1,0-.5,0-.6,0-.3.2-.2.6-.2.9v.2c-.2,0-.5,0-.6,0-.3.2-.2.6-.2.8l-.4,1.5c-1.4.6-2.1,2.4-2.4,3.8l-.4,1.4c-.3-.1-.8,0-.8.3v1c0,0-1.1,2-1.1,2-.2,0-.5-.1-.7,0s-.2.6-.2.9,0,.9,0,1.2c-1.1.4-1.6,1.7-2.1,2.7l-1.5,3.2c-.2,0-.5,0-.6.1-.2.2-.2.6-.2.8v.3c-.1,0-.5,0-.6,0-.2.2-.2.6-.2.8v.7c-.1,0-.5,0-.6,0-.2.2-.3.6-.2.9s0,.2,0,.2c-1.4.4-1.5,2.2-2.1,3.3l-4.1,8-.3,1.3c-.3.1-.6,0-.7-.3s0-.6-.4-.9l-.3,1.9c-.1.8-1.1,1.4-1.1,2.2,0,.1.1.3.1.5-.3,0-.6,0-.9.2s-.3.6-.4.9c-2,4.8-6.1,9.3-7.7,14.2s-1,1.8-1.5,2.9-.9,3.1-2.2,3.8-2.4,3.2-2.9,5.1c-.4.3-1,1.2-1.2,1.8l-1,2.6c-.9,0-1.2.8-1.3,1.6v.4c-1-.1-1.1.7-1.4,1.4s-1.1,1.6-1.1,2.6v.4c-.9,0-1.1.9-1.1,1.7v.9c-.8-.2-1,.3-1.4.9-1.7,3-3.7,6.1-4.8,9l-.3.9c-.9-.2-.9.9-1.3,1.4-.7.9-1.4,1.6-1.2,2.6-.1.2-.3.5-.4.8-.9,0-1.2.9-1.2,1.7v.7c-2.5.6-2.4,4.8-4.5,5.2s2.4-5.5,3.3-9.7Z"/>
      <path class="st14" d="M54.1,191.5c-.9,4.2-5.8,10.2-3.3,9.7s2-4.6,4.6-5.2c0,.7-.9,1.4-1.2,2.1-.9,2.6-2.7,4.5-4.1,6.9s-.6,1.5-1.2,2.4c-2.7,4-3.8,7.9-6,10.6s-.5,1.1-.5,1.4v.4c-1.1.2-1.3,1.5-1.7,2.5l-.7,1.5c-1.2.1-2.1,1.8-1.6,2.9-.4,1.1-.9,1.5-1.7,2.5-2.4,2.8-3.3,6.2-4.9,8s-2.9,4.3-4.3,6.6l-2.3,3.8c-1,1.5-2.3,2.8-2.6,4.7-.9.3-1.3,1.6-2,2.3,0-.3-.4-.6-.1-1.3l2.6-5.9c.6-1.4,1.2-2.2,1.9-3.5l6.2-11.5,4.2-7.9c1.4-2.7,2.6-5,4.4-7.6.2-1.3.7-1.9,1.3-2.9l5.6-10.7c.9-1.8,2.1-3.2,2.9-5.1l2.5-3.9c.7-1.1,1-2.4,2.1-2.9Z"/>
      <path class="st2" d="M91.2,132.9l4.1-8c1.3-.6,1.7-2.1,2.1-3.3s0-.2,0-.2c.3,0,.6-.1.7-.4s0-.4,0-.6v-.7c.3,0,.6-.1.7-.3s0-.4,0-.6v-.3c.3,0,.6-.1.7-.3s0-.5,0-.6l1.5-3.2c1.1-.6,1.8-1.6,2.1-2.7s0-.9,0-1.2c.6,0,.7-.4.9-.8l1-2c.4,0,.7,0,.8-.3v-1c.1,0,.5-1.4.5-1.4,1-.2,1.3-1.1,1.8-2.1l.7-1.7.4-1.5c.3,0,.6-.1.7-.3s0-.4,0-.6v-.2c.3,0,.6-.1.7-.4s.1-.4.1-.6v-.6c1.2-.6,2.2-1.9,2.4-3.2.3-2.1,2.5-4.3,4.1-7.3l10.5-19.3c.3,0,.9-.2,1.1-.3.2,1.3-1.1,2.4-1.7,3.4s-.7,2.6-2.1,3.4l-.6,2.2c-2.4,2.8-3.4,6.1-5,9.3s-2.8,3.4-3.5,5.8l-1.9,2.9c-.8,2.1-2,3.9-3,5.9s-1,2.3-1.7,3.5l-2.7,4.6c-1.3,2.2-2.4,4.2-3.8,6.3s-2.8,4.3-3.5,6.4-1.1,2.7-2.5,4.2l-4.1,7.1c-.5.8-.9,1.6-1.9,1.3Z"/>
      <path class="st14" d="M124,69.9c.2-2.1,2-3.3,3-5.1s.8-2.4,1.8-3.5,2.2-3.2,2.1-5.1c2.6-2.3,3.4-5.4,5.3-8.2l1.8-2.7,2.3-3.3,2.3-4.2c.9-1.6,1.4-3.7,3.6-4,.4.9-.4,1.3-.7,2l-3.3,6.4-3.9,7.1c-.6,1-1.5,1.9-1.4,3.1v.4s-4.3,6.1-4.3,6.1l-2.1,4.5c-.3.7-.7,1.5-.9,2l-.4,1c-.3.1-.8.4-1.1.3-2.1-.8-2.2,2.1-4.1,3Z"/>
      <path class="st2" d="M42.4,219.5c0-.4.1-1,.5-1.4,2.2-2.7,3.3-6.6,6-10.6s.8-1.7,1.2-2.4c1.5-2.4,3.2-4.3,4.1-6.9s1.2-1.4,1.2-2.1v-.7c.8-.1,1.1-1,1.1-1.7s.2-.6.4-.8c1.3-.9,2.3-2.4,2.5-4l.3-.9c.8,0,1-.8,1.4-1.5l4.7-8.5v-.9c.8-.1,1.2-.9,1.2-1.7v-.4c1.8-.6,1.3-2.3,2.5-2.5.1.9-.6,1.4-1,2.3l-3.2,6.2c-1.3,2.5-3,4.5-4,7.3s-1.4,2.2-1.9,3.2l-6,10.6c-1.6,2.8-3.7,5-4.8,8.3l-3.7,6.6c-.3.6-1.4.7-1.4,1.9s-.7.7-.9.6Z"/>
      <path class="st14" d="M79.6,152.8c1.6-4.9,5.7-9.4,7.7-14.2s0-.8.4-.9.6-.2.9-.2c0,.3.1.6.5.8l-.8,1.2c-.4,0-.6.4,0,.4,0,.3-.2.6-.4.9,0-.3-.1-.4-.3-.5-.3-.1-.6,0-.6.2v.7c0,.4-.4,1-.1,1.5,0,0,0,.3,0,.4h-.5c-.8,0-1.5,1.8-2.3,3.6l-.4.9c-.3,0-.7,0-.8.3s0,.4,0,.6v.7c-1.8.9-1.6,3.8-3.2,3.7Z"/>
      <path class="st2" d="M69.5,172.3v-1.3c0,0,0-.4,0-.4.4,0,.9-.1,1-.5l.3-1.2,1-2.6c.2-.6.8-1.5,1.2-1.8,1.2-.4,2.4-3.1,2.9-5.1,1.3-.7,1.6-2.4,2.2-3.8s1.2-1.9,1.5-2.9c1.6.1,1.4-2.9,3.2-3.7,0,1.3-1.2,2.4-1.6,3.6-1.1,3-3.3,5.5-4.6,8.4s-2.3,3.8-3.4,5.9l-2.1,4c-.3.6-.4,1.7-1.5,1.4Z"/>
      <path class="st2" d="M22.6,252.3c.3-1.9,1.6-3.2,2.6-4.7l2.3-3.8c1.4-2.3,2.7-4.8,4.3-6.6-.3,2.3-2,4-3.1,6.1s-5.1,8.7-6.1,9Z"/>
      <path class="st2" d="M129.7,65.6c.2-.5.6-1.3.9-2l2.1-4.5,4.3-6.1c0,1-.6,1.7-1,2.6l-2.5,4.4-2.4,4.5c-.4.7-.7,1.2-1.4,1.2Z"/>
      <path class="st14" d="M89.7,137c-.4,0-.9,0-1.3,0,0-.8,1-1.3,1.1-2.2l.3-1.9c.5.3.4.7.4.9s.4.5.7.3c-.2,1-.2,2-.6,2.9l-.3-1.5c-.4.4-.4.9-.3,1.4Z"/>
      <path class="st2" d="M84,146.6c.7-1.7,1.5-3.6,2.3-3.6.2,1.6-1.1,3.8-2.3,3.6Z"/>
      <path class="st14" d="M69.4,171v1.3c0,0,0,.2,0,.2-1.2.1-.7,1.9-2.5,2.5,0-1,.7-1.6,1.1-2.6s.4-1.6,1.3-1.4Z"/>
      <path class="st2" d="M40.7,222.3c.4-.9.6-2.3,1.8-2.5,0,.6-.2,1.2-.4,1.9s-.7.8-1.3.6Z"/>
      <path class="st2" d="M40,223.9c-.4,1-1.3,2-1.6,2.9-.5-1.1.4-2.8,1.6-2.9Z"/>
      <path class="st2" d="M88.5,137.4c0-.1,0-.3-.1-.5.4,0,.8,0,1.3,0,0,.6-.4.8-.7,1.2-.3-.2-.5-.5-.5-.8Z"/>
      <path class="st2" d="M86.9,141.2v-.7c0-.1.3-.3.6-.2s.3.2.3.5c-.2.3-.5.4-.9.5Z"/>
      <path class="st2" d="M82.8,148.4c0-.2,0-.4,0-.6s.5-.4.8-.3c-.1.2,0,.6-.3.8s-.4.1-.6.1Z"/>
      <path class="st2" d="M88.2,139.4v.4c-.6,0-.4-.5,0-.4Z"/>
      <path class="st2" d="M86.8,142.6c.7,0,.5.6,0,.4,0-.1,0-.3,0-.4Z"/>
      <path class="st2" d="M28.7,50.5c-1.6-.6-2.1-2.5-2.9-4l-3.1-5.4c-.6-1.1-1.5-1.7-1.8-3.1s-1.6-2.8-2.2-4.3l-1.2-3.3c-3.5-5.6-6.3-11.2-9-17.3s-.7-.8-.5-1.4.7-.4,1-.2c1,.5.7,2.4,3.3,5s2.2,3.1,3.4,4.7l2.3,3,2.7,4.2c1.8,2.8,4.3,5.2,5.7,8.3,1.5,1.9,2.6,3.9,3,6.2,2,1.4,3.1,3.2,3.6,5.5l2.7,4c.4,1.5,1.2,1.9,2,3.1s1.2,3.7,2.7,4.9,1,2.4,1.6,3.3c1.8,2.5,2.9,5.1,4.5,7.7l3.4,5.5,5.1,9,5.5,9.9c1.4,2.4,2.7,4.7,4.1,7.2l2.2,3.9c1.5,2.7,2.9,5.4,4.5,8l2.3,3.7c.9,1.5,1.5,2.9,2.5,4.5s2.2,4.4,3.8,6.3.3,1,.3,1.3c-.3,0-.8-.2-1.1-.6l-3.9-6.9c-1.8-3.1-3.7-5.9-5.3-9.2s-2.9-4.4-3.7-6.4-1.8-2.9-2.6-4.4c-1.9-3.7-4-7.2-6.2-10.7l-4.5-7.3-1.7-3.5c-1.5-1.3-1.9-2.9-2.8-4.5s-2.8-4-3.6-6.5l-1.5-1.7c-.4-2.3-1.9-3.7-3-5.5l-2.1-3.6c-1.8-3.2-3.6-5.5-4.3-6.7l-3.5-6c-1.4-1.5-1.9-2.9-2.8-4.7s-2.3-2.8-2.8-4.9-1.3-1.6-2.1-2.2c-1.1,2.1.3,3.7,1.3,5.4l4,7.3c.4.7.8,1.2.9,2Z"/>
      <path class="st2" d="M29.9,53.7c.3,0,.9,0,1,.7.1.9,1.4,1.5,1.7,2.3,1.8,3.9,4,7.5,6.1,11.2l3.2,5.7,3.8,6.7c.9,1.6,1.5,3.6,3.2,4.5l.4,1.2c.3,1,.5,2.2,1.6,2.5.3,1.3,1.3,2.5,2,3.5,0,.6.3,1.1.8,1.4l1.6,3.3c.4,2,1.4,3.7,2.5,5.6l2.5,4.4c.5.9,1,1.6,1.2,2.5-.6,0-.9-.3-1.2-.8l-5.3-9.3c-2.1-3.6-4.1-6.9-5.8-10.8l-3.6-6.5-3.1-5-5.2-9.7-2.9-4.8-2.7-5c-.7-1.2-1.7-2.3-1.7-3.5Z"/>
      <path class="st2" d="M64.6,115.7c.9-.2,1,.7,1.4,1.4,1.4,2.6,3.1,4.8,4,7.4-1.5-.3-1.9-1.9-2.6-3.1-1-1.9-2.5-3.6-2.8-5.6Z"/>
      <path class="st2" d="M73.1,130.8c1.3.1,1.4,1.5,2,2.5s1.3,1.7,1.4,2.9c-1.2.1-1.5-1-1.9-2s-1.6-2.2-1.5-3.4Z"/>
      <path class="st2" d="M61.9,110.9c1.2,0,2.3,2.4,2.8,4.3-.9,0-1.3-.7-1.7-1.6l-1.1-2.8Z"/>
      <path class="st2" d="M69.9,124.8c.5,0,.8.4,1.1,1l2.2,4.4c-.8,0-.9-.7-1.2-1.3-.8-1.4-1.9-2.5-2-4.1Z"/>
      <path class="st2" d="M28.7,51.2c.8.1,1.2,1,1.2,1.8-.9,0-1.1-.9-1.2-1.8Z"/>
      <path class="st14" d="M54.5,189.9c.1-.5,1-1.2,1-1.7.2-2.1,1.3-3.4,2.2-5.1l2.4-4.4c1.5-2.8,4.1-6.2,4.1-8.1v-.3c.8,0,1.2-.6,1.6-1.4l3.7-6.8c.6-1.2,1.2-2.1,2-3.3l2.8-4.8c1.3-2.3,3.3-5.4,3.3-6.5v-1.3c1.6.7,2.9-3.4,4.7-6.4s1.9-2.8,2.3-4.3-.2-2.9,1.4-3.2.8-.2.9-.5c1.5-3.9,4.7-8.1,7-11.9l7.1-11.9,2.3-3.8c.7-1.2,1.4-2,2-3.4,2.4-5.2,5.4-8.5,7.5-12.9s1.3-1.7,2.1-1.8c.3,1.2-.4,1.7-1.3,2.6-2,2-1.7,4.7-4,7.4-2.7,3.1-4,7-6,10.6l-2.1,3.9c-.2.3-2,2.7-3.7,5.6l-5.7,10-2.3,3.8c-1.1,1.9-2.1,3.4-2.2,5.7-.5-.8,0-1.4-.5-1.9-.6,1-.3,1.8-.5,2.5s-1.1.6-1.7.7c.2,1.4-.8,2.2-1.2,3s-1,2.2-1.6,3.3l-4.3,7.4c-1.2,2-2.1,4-3.4,6l-1.8,2.6-3.2,5.7c-1.1,1.2-1.4,2.6-2.1,4-1.3,2.9-3.2,5.4-5,7.9-.1,2.1-1.3,3.7-2.5,5.2-.2,1.3-.9,2.2-1.5,3.3l-1.4,2.6c-.6,1.1-1,2.1-2.3,2.2Z"/>
      <path class="st14" d="M114.8,85.5c0-1.3,1-3.1,2.5-3.3-.4,1.2-1,2.9-2.5,3.3Z"/>
      <path class="st14" d="M122,73.1c.2-.9.7-1.8,1.6-2-.3.9-.5,2-1.6,2Z"/>
      <path class="st14" d="M121.2,74.8c0-.3,0-.6,0-1s.4-.4.7-.2c0,.3,0,.6,0,.9s-.5.4-.8.3Z"/>
      <path class="st14" d="M120.5,76c0-.1,0-.4,0-.6s.4-.4.7-.3c0,.3,0,.7-.2.9s-.4.1-.5.1Z"/>
      <path class="st2" d="M135.3,238.4c2.4,2.5,4.3,5.5,5.8,8.6-2.6-2.3-4.3-5.5-5.8-8.6Z"/>
      <path class="st2" d="M109.1,182.7c1.2.3,1.5,1.8,2,2.8-1.3,0-1.8-1.7-2-2.8Z"/>
      <path class="st2" d="M117.6,197.2c.6.7,1.2,1.6,1.2,2.6-1.2-.2-1.7-1.6-1.2-2.6Z"/>
      <path class="st2" d="M96.1,160.1c.6-.2,1.2,0,1.3.6v1.3c-1-.1-.9-1.2-1.3-1.9Z"/>
      <path class="st2" d="M120.4,202.8c.9.1,1,1,1.2,1.8-.9,0-1.2-.9-1.2-1.8Z"/>
      <path class="st2" d="M119.2,200.5c.9,0,1.2.8,1.2,1.6-.8,0-1.2-.9-1.2-1.6Z"/>
      <path class="st2" d="M132.6,233.9c.8,0,1,.6,1.3,1.3-.4.1-.9,0-1.1-.3s-.1-.7-.2-1Z"/>
      <path class="st2" d="M115.9,194.8c.4,0,.6,0,.8.3s.1.7.2.9c-.8,0-.8-.8-1-1.2Z"/>
      <path class="st2" d="M108.2,181.1c.3-.2.7,0,.9.2s0,.5,0,.6c-.7,0-.8-.5-.9-.8Z"/>
      <path class="st2" d="M134.6,237.2c.2,0,.4,0,.6,0,.2.2.3.5.2.8-.3,0-.6,0-.7-.3s0-.5,0-.6Z"/>
      <path class="st2" d="M97.8,162.8c.6,0,.8.4.9.9-.2,0-.5,0-.7,0-.2-.2-.2-.6-.3-.8Z"/>
      <path class="st2" d="M99,164.9c.3,0,.6,0,.7.3v.6s-.3,0-.5-.1c-.2-.2-.3-.6-.2-.8Z"/>
      <path class="st2" d="M100.6,167.7c.3,0,.7,0,.7.3v.6c0,0-.3,0-.5-.1-.2-.2-.2-.5-.3-.8Z"/>
      <path class="st2" d="M64.2,170.3c0-1.2.8-2.1,1.4-3.1l2.2-3.8c1.6-2.8,3.1-5.4,4.7-8.3l3.6-6.6c.4-.7.9-1,1.5-1.1,0,1.1-1.9,4.2-3.3,6.5l-2.8,4.8c-.7,1.2-1.3,2.2-2,3.3l-3.7,6.8c-.4.8-.8,1.3-1.6,1.4Z"/>
      <path class="st2" d="M77.6,146.1l2.1-3.4c.9-2.2,2-4.1,3.2-6.2s.7-1.5,1.8-1.2c-.4,1.6-1.4,2.9-2.3,4.3-1.8,3.1-3.1,7.2-4.7,6.4Z"/>
      <path class="st14" d="M49.2,86c1.2.2,1.4,1.5,1.6,2.5-1.1-.3-1.3-1.5-1.6-2.5Z"/>
      <path class="st14" d="M52.9,92c.2,0,.6.2.8.4.2.3,0,.8,0,1-.6-.2-.8-.7-.8-1.4Z"/>
      <path class="st2" d="M160.8,282.9c1.3,0,2.4-1,2.4-2.5s-2.3-3.2-4.3-2.6c-.3,1.2-.2,2.4.4,3.6,0,.1-.3.3-.6.3-.6-1.2-1.7-2.4-1.6-4.1s1.7-2.2,2.8-2.4c1.5-.3,2.5.5,3.5,1.5,1.7,1.6,1.9,3.4.5,5.3s-.9,1.1-1.6,1.3-1-.3-1.5-.5Z"/>
      <path class="st6" d="M160.8,282.9c-1-.4-1.6-.2-2.1-1.1.2,0,.6-.1.6-.3-.6-1.2-.7-2.4-.4-3.6,2-.6,4.3.6,4.3,2.6s-1.1,2.5-2.4,2.5Z"/>
      <path class="st14" d="M7.1,281.3c-.3-.6,0-1.2.2-2.1-.8-.6-2-.3-2.4.7s-.2,1.6-.1,2.3c-.9,0-1.1-.9-1.2-1.5-.4-2.2,3.3-3.6,4.2-2.7s.3,2.8-.6,3.3Z"/>
      <path class="st14" d="M59.7,188c1.1-2.9,3-6,4.8-9s.5-1.2,1.3-.9l-4.7,8.5c-.4.7-.6,1.5-1.4,1.5Z"/>
      <path class="st14" d="M73,164.6c.5-1.9,2-4.6,2.9-5.1-.5,2-1.7,4.7-2.9,5.1Z"/>
      <path class="st14" d="M59.4,188.8c-.2,1.6-1.2,3.1-2.5,4-.2-1,.5-1.6,1.2-2.6s.4-1.6,1.3-1.4Z"/>
      <path class="st14" d="M95.3,124.9c.6-1.1.7-2.9,2.1-3.3-.4,1.2-.8,2.8-2.1,3.3Z"/>
      <path class="st14" d="M106.7,104.8c.4-1.4,1-3.2,2.4-3.8l-.7,1.7c-.4,1-.7,1.9-1.8,2.1Z"/>
      <path class="st14" d="M111.1,96.7c0-.7,1.6-3.4,2.4-3.2-.2,1.3-1.1,2.7-2.4,3.2Z"/>
      <path class="st14" d="M69.5,170.6c.1-.8.4-1.7,1.3-1.6l-.3,1.2c0,.4-.6.5-1,.5Z"/>
      <path class="st14" d="M65.9,177.1c0-.8.3-1.7,1.2-1.7,0,.8-.4,1.6-1.2,1.7Z"/>
      <path class="st14" d="M55.4,195.3c0-.8.3-1.7,1.2-1.7,0,.8-.3,1.6-1.2,1.7Z"/>
      <path class="st14" d="M103.5,111.6c-.3,1.1-1,2.1-2.1,2.7.5-1,1-2.3,2.1-2.7Z"/>
      <path class="st14" d="M105.4,107.5v-1c.1-.3.6-.4.9-.3v1c-.1.2-.5.4-.9.3Z"/>
      <path class="st14" d="M99,118.5c0-.3,0-.7.2-.8s.4-.1.6-.1c0,.1,0,.5,0,.6s-.4.4-.7.3Z"/>
      <path class="st14" d="M98.2,119.7c0-.3,0-.6.2-.8s.4-.1.6,0c0,.2,0,.4,0,.6s-.4.4-.7.3Z"/>
      <path class="st14" d="M109.5,99.5c0-.2,0-.6.2-.8s.4-.1.6,0c0,.2,0,.4,0,.6s-.4.4-.7.3Z"/>
      <path class="st14" d="M110.3,98.3c0-.3,0-.7.2-.9s.5-.1.6,0c0,.2,0,.4-.1.6s-.4.4-.7.4Z"/>
      <path class="st14" d="M97.4,121.3c0-.3,0-.7.2-.9s.5-.1.6,0c0,.2,0,.4,0,.6s-.4.4-.7.4Z"/>
      <path class="st14" d="M103.5,110.4c0-.3,0-.7.2-.9s.6,0,.7,0c-.2.4-.3.8-.9.8Z"/>
    </g>
  </g>
  <path class="st5" d="M708.6,409.6v40c0,48.1-24.1,75.7-70.5,75.7s-70.5-27.5-70.5-75.7v-156.5c0-48.1,24.1-75.7,70.5-75.7s70.5,27.5,70.5,75.7v29.2h-44.7v-32.2c0-21.5-9.5-29.7-24.5-29.7s-24.5,8.2-24.5,29.7v162.5c0,21.5,9.5,29.2,24.5,29.2s24.5-7.7,24.5-29.2v-43h44.7Z"/>
  <g id="PQMSQy">
    <g>
      <path class="st9" d="M665.7,488.5l.3-.2c-.2-.3-.6,0-.3.2Z"/>
      <path class="st18" d="M618.8,528.7l-4.1-5.3c-.9,2.9,1.4,5.6,4.1,5.3Z"/>
      <path class="st13" d="M728.3,417.6l-2.5,3.1-15,16.3c-.7.8-1.2,1.5-2,2.2l-7.4,7.8-14.4,15.1c-.6.6-1.7.8-1.4,1.9-.1.1-.3.3-.4.3-.6.1-1,.6-1.4,1l-17.7,17.4-36.3,36.1-7.4,7.4c-.7.7-1.4,1.1-2.3.9h-.8c0-.1-.4-.5-.4-.5v-.3c.9-.2,2.1-1.4,2.1-2.3,1-.3,1.6-1.8,2.6-2.1s1.3-1.2,1.7-1.6c1.1-.9,2-1.7,2.9-2.8s1.9-2.2,3-2.8,1.1-1.4,1.6-1.8c2-1.8,3.6-3.9,5.5-6s5.1-4.9,7.8-7.1,2.9-2.1,3-4.1c2.3-1,4.6-3.3,5.8-5.3.4-.1.7-.5,1-.6.9-.4,3.3-2.5,3.2-3.7,1.1-.4,2.3-.7,2.8-1.8.7-1.8,4.1-3.4,5.4-6.4.8,0,1.1-.6,1.5-1s1.4-1,1.4-1.8c1.4-.4,3.7-3,4.1-3.8,1.6,0,2.9-3.6,4.3-4.1s1.6-1.4,2.5-2.3l4.9-4.9c.8-.8,1.8-1.5,1.8-2.9,2.6-.4,3.6-3.3,5.6-4.9s3.5-2.3,3.9-4.9c.8.3,1.3,0,1.6-.8,1.5-1,3.6-2.6,3.9-4.5,1.3-.2,2.3-1,2.8-2.1.8-.5,1.6-1.8,1.7-2.8,1.2.5,1.3-1,1.8-1.4,3.1-2.2,5.1-5.1,7.4-7.6l8.1-8.8c1.4-1.5,3.7-3.3,3.5-1.9Z"/>
      <path class="st13" d="M655.8,538.4l7.6,7.4c.7.7,1.4,1.6,2.3,2.5l10.1,10,6.5,6.6,7.4,7.3,5.6,5.5,1.8.8v.5c-1.8,1.1-3.7,1-5.3-.7l-41-41c-.4-.4.2-1.3.4-1.4.4,0,.9-.1,1.4-.3l3.2,2.8Z"/>
      <path class="st13" d="M610.6,536.1c.3.1.7.5,1,1l-39.3,39.4c-1.9,2-3.6,4.6-6.5,3.1,0-.6.3-1,.8-1.2,1.8-.8,2.7-2.5,4-3.9l3-3.1c1.8-1.9,4.8-3.4,5.4-5.9,1.3.2,4.2-3,4.3-3.7,1.2-.4,2.5-1.8,2.8-3.1,1.1,0,1.3-1.2,2.1-1.8l3.7-3.2,6.3-6.6c.6-.6,1.7-1.3,2.5-2.1,3.1-3.1,6.3-6.1,8.1-10,.4.5,1.2.7,1.7.9Z"/>
      <path class="st12" d="M579.1,565.6c-.6,2.5-3.6,4-5.4,5.9l-3,3.1c-1.3,1.3-2.2,3-4,3.9s-.8.6-.8,1.2c-.8-.4-1.9-.6-2.6-1.4.3-.6.4-1,.4-1.5,3.3-.8,6.3-4,6.3-7.6l3.2-3.5c1.8.8-2.1,2.3-1,4.7,3.1-2,5.8-4.7,6.4-8s1.6-1.8,1-3l1.8-1.9c.7-.8,1.4-1.9,2.4-2-.4,3.5-3.6,5.8-4.7,10.1Z"/>
      <path class="st13" d="M639.6,516.7l2.2,2.6c-.6,1.1-1.2,2-2.1,2.9l3.7,3.7c-.7.5-1,1.1-1.7,1.3s-1.5-.2-2-.8l-4.9-5.1,3.4-4.1c.2-.2.2-.5.5-.6s.9-.2,1,0Z"/>
      <path class="st0" d="M644.6,525.1l-1.3.9-3.7-3.7c1-.9,1.5-1.9,2.1-2.9.2.2,5.4,4,2.9,5.7Z"/>
      <path class="st23" d="M651.2,534.2l-.2,1.1c-.7.2-1.4.2-2.1.2l-.5-.4c-.5-.7-1-1.4-1.7-1.8v-.8c0,0-.1-.5-.1-.5,1,0,1.6-.8,2.3-1.6,0,2.1,2.5,2.5,2.3,3.9Z"/>
      <path class="st0" d="M617.6,530c.3.4.3.8.2,1s-.6.7-1,.6c-.6-.2-1.5-.4-1.9-.7-4.1-3.9-2.1-5.8-1.5-4.9,1.1,1.6,2.5,3.8,4.3,4Z"/>
      <path class="st13" d="M645.3,528.8c-1,.2-2.3.8-3.4,0l3.3-3.1c.3-.4,1-1.4,1.4-1.5.9-.1,1,1.1.6,1.7l-1.8,2.8Z"/>
      <path class="st23" d="M610.6,535.4v-.7c1.5-.2,2.6-1.8,3.4-3.1h.3c0,.4.9.7,1.3,1,0,1-1,2.3-1.8,2.7s-2.2.1-3.2,0Z"/>
      <path class="st13" d="M648,529.6l-1.5,1.4c-.4.4-1.9.6-2.2,0-.4-.8.5-1.5.9-1.8.4-.2,1.1-.3,1.4-.6.2.6.8.9,1.4.9Z"/>
      <path class="st19" d="M646.6,532.5v.8c-.2,0-.6.1-.9-.2s-.1-.6.2-.6.5,0,.7,0Z"/>
      <path class="st19" d="M638.1,517.3c-.4-.3,0-.7.5-.6-.3,0-.3.4-.5.6Z"/>
      <path class="st19" d="M648.9,535.5c-.2,0-.4-.2-.5-.4l.5.4Z"/>
      <path class="st13" d="M536.5,419.6l7.9,8.2c.6.7,1,1.2,1.5,1.8l3.4,3.5c1.1,1.1,1.8,2.4,3.2,3,.6,1,1.4,2.2,2.7,2.4.5,1.3,1.4,2.7,2.8,3.1.7,1.6,2.1,2.9,3.7,3.8s.9,1.1,1,1.7c.3.9,1,.9,1.3,1.2.8.9,1.8,1.7,2.8,2.1,0,.5.2,1,.6,1.4.8.8,2.3,1.4,2.9,2.4s1.7,1.7,2.6,2.6,1.8,2.7,2.9,3.2,1.1.9,1.4,1.3c1.6,2.4,7.3,7.8,8.1,7.4,0,1.3,1,1.8,1.8,2.4s1.5,2.2,2.5,3.1c1.7,1.5,3.4,2.7,4.9,4.4s1.5,1.2,2.3,1.3c.3,1.5,1.4,2.5,2.8,3.3l2,2.1c3.5,3.8,9.1,8.4,12,12l2.3,1.9c.8.6,1.5,1.3,2.4,1.8.6,2,2.6,3,4.1,4.5l3.4,3.6c-.3.2-.5,1-.8,1.2-.6.6-1.1.3-1.6-.2l-31.7-31.5-23.1-23.1-9.7-10.2-9.4-10-5.6-6-5.3-5.7-8.1-9.4c.6,0,1.6.1,1.9.7,1.1,2,2.9,3.1,4.3,4.5Z"/>
      <path class="st12" d="M589,465.9c0,.3-.2.5-.2.7,0,.3-.3.4-.5.3s.1-1.9-4.5-2.5c-.6-.4.5-1.7.6-2.1-.5-.9-2.3.5-2.1,1.5.3,1.6,2.2,2,3.5,2.8,1.9,1.1,4.1,3.3,4.9,1.1,1.9,2.2,4.5,3.9,6.2,6.4-.2,0-.4.4-.7.3-.5,0-.6-.6-.8-.8-2.2-2.3-5.2-3.2-7.9-4.6s-1.3-.7-2.1-.3-6.4-5.1-8.1-7.4c.6-2.6.5-5.1-.5-7.5l12.4,12.3Z"/>
      <path class="st12" d="M613.6,491.2c-1.5,1.7.6,4.5,2.3,7.3.3.4.2.7-.3.7l-2.3-1.9c-2.8-3.6-8.5-8.2-12-12,2-.2,3.9,0,4.6-1.9l7.6,7.8Z"/>
      <path class="st12" d="M654.9,490.6c-1.2,2-3.5,4.3-5.8,5.3l-4.5,2c-1.5.7-3.8,0-4.3,2.2s-.7.5-.9.6-.6.2-.8-.3l4.8-5.1c.2-.2.6-.4.9-.4,2.3.5,4.3-1.3,5.5-3.3s3.6-4,2.8-5.2c.3-1.3,1.7-2.1,2.8-2.8-.7,1.4-1,2.4-.8,4.2s-.4,1.8.3,2.5Z"/>
      <path class="st12" d="M601.6,478.8c1.3,1.4,2.9,2.6,4,4.2-3.1,1.8-6.7-2.9-8.9-3.1s-1.6-.6-2.3-1.3c-1.5-1.7-3.2-2.9-4.9-4.4s-1.5-2.4-2.5-3.1c.6-2,2.9,1,4.2,1.8s2.9,1.3,3.5,3,1.7.9,2.2,1.4c1.4,1,2.5,2,4.2,2.4.2,0,.4-.4.4-.9Z"/>
      <path class="st12" d="M596.3,547.1c-.7,1.3-2.9,2.3-4.3,3s-2,1.8-2.9,3.4-2.7,3.2-3,5.3-1.6,2.6-2.8,3.1c.4-5.3,3.9-7.2,2.2-8.4,1.8-2,3.6-4.1,5.7-5.8,1.5-1.4,1.9-1.8,5.1-.6Z"/>
      <path class="st12" d="M608.9,535.2c-1.8,3.9-5,6.9-8.1,10s-1.9,1.5-2.5,2.1h-1.9c.4-1.2,1.2-1,2.1-1.7,2.3-1.6,2.8-4.6,4.2-6.8s1.5-2,.5-2.8c1.2-.8,1.8-2.6,3.5-3.5,1.2.6,1.6,1.9,2.3,2.7Z"/>
      <path class="st12" d="M646.1,500.1c-2.6,2.2-5.3,4.4-7.8,7.1s-3.5,4.2-5.5,6c.2-5.5,4.2-7.4,3.5-10.4.4-.4.9-1,1.3-1.4,0,.4,0,1,.4.9l.9-.4c4.6-.8,5.7-2.5,7.1-1.7Z"/>
      <path class="st12" d="M628.3,517.7c-.9,1-1.8,1.9-2.9,2.8-1.2-2.6,1-5.3.9-7.5s1-1.6,1.8-2.3l6.5-6.4c-.1,1.4-.8,2.5-1.9,3.6l-2.2,5.2c-1.1,1.5-2.5,2.6-2.1,4.7Z"/>
      <path class="st12" d="M619.6,497.2c-1.4,1.2.9,4.7,3.3,6.8s.9,1.8,2.1,2.1,1.6,1.1,2,1.8c-.4.5-.9.9-1.4,1.2l-3.4-3.6c-1.4-1.4-3.5-2.5-4.1-4.5s0-2.5-.9-3.5c-1.4-1.6-3-3.5-2.6-5.6,1.7,1.6,3.7,3.2,5,5.2Z"/>
      <path class="st0" d="M596.7,474c.4-.2.9.3,1,.7-.4,0-.5.3-.3.5l.5.4c0,0,.4-.2.3-.4l3.4,3.6c0,.4-.2.9-.4.9-1.7-.4-2.8-1.4-4.2-2.4s-1.9-.4-2.2-1.4c-.6-1.7-2-2.2-3.5-3s-3.6-3.7-4.2-1.8c-.8-.6-1.8-1.1-1.8-2.4.8-.4,1.2-.1,2.1.3,2.8,1.4,5.7,2.3,7.9,4.6s.3.7.8.8.4-.2.7-.3Z"/>
      <path class="st12" d="M621.1,524.2c0,.8-1.2,2.1-2.1,2.3-1.2-.7-3-2.4-2.3-4.1s2.7-3.1,3.9-3.9c0,.3,0,1.2.1,1.4.8.2,1-.7,1.2-1.2s.2-.8-.4-1.1c.4-1.2,1.3-2.1,2.4-2.7,1.4,1.6-1.3,6.7-3,8.1s0,.9,0,1.1ZM620.1,520.3c-1,.3-3.2,3.4-1.6,5.1,1.3-3.1,3.3-5.5,1.6-5.1Z"/>
      <path class="st0" d="M574.2,451.3c1.2.4,1.6,1.6,2.4,2.4,1.1,2.4,1.2,4.9.5,7.5-.3-.4-.9-1.1-1.4-1.3l-1-4.7c-.6-2.5-5.8-5.9-7.5-3.6-.4-.4-.6-.9-.6-1.4,1.2-1.7,4.6,0,7.5,1Z"/>
      <path class="st0" d="M591.6,547.2c.3,0,.7-.9,1.1-1,1.2,0,2.3-1.6,3.5-1.9,2.8-.6,4.2-2.6,4.6-5.3.3-.7,2-1.3,1.4-2.5l.9-.6c1,.8.1,1.8-.5,2.8-1.4,2.3-1.9,5.2-4.2,6.8s-1.7.5-2.1,1.5"/>
      <path class="st0" d="M598.2,547.2l-6.3,6.6-3.7,3.2c-.7.6-1,1.7-2.1,1.8.4-2.1,2.1-3.5,3-5.3s1.1-2.4,2.9-3.4,3.6-1.7,4.3-3h1.9Z"/>
      <path class="st12" d="M564.2,441.8c1.2,1,2.8,2.2,3.6,3.4-2.1.8-4.4-1.1-6.2.1-1.5-.8-3-2.1-3.7-3.8,3.2-1.6,4.6,2.2,6.3.2Z"/>
      <path class="st0" d="M636.4,502.7c.6,2.9-3.3,4.8-3.5,10.4-.5.4-.6,1.2-1.6,1.8s-2.2,2-3,2.8c-.4-2.1,1-3.2,2.1-4.7l2.2-5.2c1.1-1,1.8-2.2,1.9-3.6l1.8-1.5Z"/>
      <path class="st13" d="M613.9,531.6c-.7,1.3-1.9,2.9-3.5,3.1-1.2-.8-2.6-2.3-2.1-4s1.6-2,2.6-2.7c.8,1.8,1.9,2.5,2.9,3.7Z"/>
      <path class="st0" d="M621.3,498.5c-.7,1.5,1,2.5,2.1,3.6l3.2,2.9c.3.3.6.3.8-.2.3.3,1.2.6,1.2,1.4s-1.2,1.3-1.6,1.8c-.4-.7-1.1-1.5-2-1.8s-1.4-1.5-2.1-2.1c-2.4-2.1-4.7-5.6-3.3-6.8.5.4,1.2.8,1.7,1.4Z"/>
      <path class="st0" d="M649.1,495.9c-.1,2-1.7,3-3,4.1-1.4-.8-2.5.9-7.1,1.7l-.9.4c-.3.1-.5-.5-.4-.9l.9-.8c.2.5.6.4.8.3s.8-.3.9-.6c.6-2.1,2.8-1.6,4.3-2.2l4.5-2Z"/>
      <path class="st12" d="M553.6,431.4c-.2.4.5.7.8.9.6.5,1.4,1.6,2.3,1.9l5.7,5.8c-3.2-.3-5.5-2-7.1-1.6-1.2-.2-2-1.4-2.7-2.4,1.8-.1,3.5.6,5.7,1.2-.9-2.2-3.1-2.8-4.9-3.9l-4.1-2.5c-1.7-1-2.1-3.5-2.3-5.2l6.6,5.7Z"/>
      <path class="st12" d="M574.2,451.3c-2.8-1-6.2-2.7-7.5-1-1-.4-2-1.2-2.8-2.1.8-1.4,3.9.2,5.3-1.7l5,4.8Z"/>
      <path class="st12" d="M592.7,546.3l9.5-9.7c.6,1.2-1.2,1.8-1.4,2.5-.5,2.7-1.9,4.7-4.6,5.3-1.2.3-2.2,1.8-3.5,1.9Z"/>
      <path class="st0" d="M605.6,483l.5.4c-.7,1.9-2.7,1.7-4.6,1.9l-2-2.1c-1.4-.9-2.5-1.8-2.8-3.3,2.2.2,5.8,4.9,8.9,3.1Z"/>
      <path class="st0" d="M562.3,440c1.2.1,1.3,1.2,1.9,1.7-1.6,2-3.1-1.8-6.3-.2-1.4-.4-2.3-1.8-2.8-3.1,1.6-.5,3.9,1.3,7.1,1.6Z"/>
      <path class="st0" d="M589,465.9l1.5,1.7c-.8,2.2-2.9,0-4.9-1.1s-3.2-1.1-3.5-2.8,1.6-2.4,2.1-1.5c-.1.5-1.2,1.7-.6,2.1,4.7.6,4.4,2.4,4.5,2.5.3,0,.4,0,.5-.3s.1-.3.2-.7Z"/>
      <path class="st0" d="M626.3,513c.1,2.2-2.1,4.9-.9,7.5-.5.4-.6,1.2-1.7,1.6s-1.6,1.8-2.6,2.1c0-.3-.6-.7,0-1.1,1.7-1.4,4.3-6.5,3-8.1.4-1,1.2-1.8,2.3-1.9Z"/>
      <path class="st0" d="M567.8,445.2c.3.4,1,1,1.4,1.3-1.4,1.9-4.4.3-5.3,1.7-.3-.3-1-.3-1.3-1.2s-.6-1.4-1-1.7c1.9-1.2,4.1.7,6.2-.1Z"/>
      <path class="st0" d="M614.6,492c-.3,2.1,1.2,4,2.6,5.6s.6,2.5.9,3.5c-.9-.5-1.6-1.2-2.4-1.8.4,0,.6-.3.3-.7-1.8-2.8-3.8-5.6-2.3-7.3.2.2.7.6.9.8Z"/>
      <path class="st13" d="M618.8,528.7c-2.6.3-5-2.4-4.1-5.3l4.1,5.3Z"/>
      <path class="st12" d="M627.4,504.8c-.1.6-.5.5-.8.2l-3.2-2.9c-1.1-1-2.8-2-2.1-3.6l6.1,6.2Z"/>
      <path class="st0" d="M621.6,517.6c.6.2.5.7.4,1.1s-.4,1.4-1.2,1.2c-.2-.2,0-1.1-.1-1.4.3-.2.4-.9,1-.8Z"/>
      <path class="st9" d="M619.4,527.1c0,.2-.2.6-.3.7s-.7,0-.7-.2c0-.4.2-.8.6-.8l.4.3Z"/>
      <path class="st12" d="M598.2,475.2c.1.2-.2.5-.3.4l-.5-.4c-.2-.2-.2-.6.3-.5,0,.2.4.4.5.5Z"/>
      <path class="st0" d="M541,420.6c-1.2,1.3-1.8-1.4-4.5-.9-1.3-1.4-3.2-2.5-4.3-4.5s-1.3-.8-1.9-.7c-.3-.3-.5-.7-.4-1.1s.7-.7.9-.9c.6,0,1.3,0,1.9.5l7.3,6.5c.5.4,1,.6,1,1.2Z"/>
      <path class="st13" d="M522,403.2c-.2.5.3,1.1.5,1.5,0,1.1.8,2.1,1.7,2.6.5.5.6,1.7,1.9,1.6s1.8-.3,2.6-1.1c0,.4.6.9.4,1.4s-.2.6,0,.8c-.8.1-1.5.4-1.8,1.1-3.4.1-6.9-4.3-6-7.9.3,0,.6,0,.9,0Z"/>
      <path class="st19" d="M529,410.1c0,.3.1,1.2-.3,1.3s-1.1-.2-1.6-.2c.3-.7,1.1-1,1.8-1.1Z"/>
      <path class="st12" d="M698.2,441.3l-1.5,6.2h-.1s-.2.3-.2.3l.2.3.2-.3v-.3c-.1,0,.4,0,.4,0-.4,2.6-2.1,3.4-3.9,4.9s-3,4.5-5.6,4.9-3.6.5-5.5.4c-.3.2-.4,1.4-.1,1.6.8.7,2.7,0,3.8.9l-4.9,4.9c-.8.8-1,1.7-2.5,2.3s-2.7,4.1-4.3,4.1c.7-1.8,1.1-3.5,1.4-5.6s.7-1.6,0-2.3l8.8-8.8c1.2.7,3.4,1.7,4.6.5s1-2.4,1.7-3.3.4-2.1-.5-2.8c2.3-2.9,5.4-5.3,8.1-7.9Z"/>
      <path class="st12" d="M670.2,475.3c0,.8-.9,1.3-1.4,1.8-.4,0-.8,0-1.1,0s-.3.7-.4,1c-1.3,3-4.7,4.6-5.4,6.4-.3,0-.6.1-1-.2.5-1.5,1.9-2.5,2.6-3.8,1.6-3.2,3-6.2,5.7-8.6s.8-1.7.4-2.4l5.1-5.1v2.4c-1.3,1.3-1,3.2-1.9,4.6s-2.6,2.1-2.6,3.9Z"/>
      <path class="st12" d="M724.8,419.5l-8.1,8.8c-3-.1-5,2.6-7,4.6s-2,2.5-2.2,4.3-.9,2.3-1.7,2.8c-.7-1,.8-2.1-1.4-4.6l5.2-5,4.9-4.4c1.3.9,5.2-1.3,5.7-2.2.8-1.5,1.6-2.9,3-3.9,0-.9.4-1.5.6-2.2.3-.2.8-.6,1-.9l.2,2.5Z"/>
      <path class="st0" d="M661.9,484.5c-.5,1.2-1.7,1.4-2.8,1.8-.5-6.7,3.2-5.3,3.6-8s3.3-2.7,2.2-4.2c1.5-1.5,3.1-3,4.6-4.6.4.7.3,1.8-.4,2.4-2.7,2.4-4.1,5.4-5.7,8.6s-2.1,2.3-2.6,3.8c.4.3.8.2,1,.2Z"/>
      <path class="st12" d="M740.8,403.7c-.1.5,0,.9,0,1-2.5,3.4-3.9,4-8.1,3.3-.2-1.7.8-2.9,2-3.9,1.8-1.5,4.5-2.1,6.1-.4Z"/>
      <path class="st12" d="M702.8,442.2c-.3,1.9-2.5,3.5-3.9,4.5.1-1.1-.4-2.8.2-4s1.9-2.1,1.4-3.7c.8-.8,1.8-2.1,2.8-2.6.3,0,.4.4.4.7l-.8,5Z"/>
      <path class="st12" d="M659.1,486.3c0,1.2-2.4,3.3-3.2,3.7,0-4,2.4-6.1,2.6-9.3l6.5-6.5c1.1,1.5-1.9,2.1-2.2,4.2s-4.1,1.3-3.6,8Z"/>
      <path class="st0" d="M731.5,414.4h-.6c0-.2-.4-.4-.6-.3l-.8.6c-.4.3-.7.5-.9.8s.2.7.7.7c-.3.4-.7.9-1.1,1.4.3-1.3-2.1.5-3.5,1.9l-.2-2.5c1-1.5,2.9-2.8,4.5-4.2s1.5-1.8,2.6-.8,0,1.9-.2,2.4Z"/>
      <path class="st0" d="M644.3,495.1c2.6-3,5.2-6.1,8.3-8.4.9,1.1-1.6,3.2-2.8,5.2s-3.3,3.8-5.5,3.3Z"/>
      <path class="st0" d="M723.6,417.9c-.2.7-.6,1.3-.6,2.2-1.4,1-2.2,2.4-3,3.9s-4.3,3.1-5.7,2.2c3-2.7,6-5.9,9.2-8.3Z"/>
      <path class="st13" d="M741.2,406c-.4.1-.5.6-.6,1-1,2.5-3.6,4.3-6.3,3.3s-1.5-1.4-1.6-2.2c4.3.7,5.7,0,8.1-3.3.3.5.3.9.3,1.2Z"/>
      <path class="st0" d="M690.2,449.2c.9.7,1.4,1.7.5,2.8s-1,2.6-1.7,3.3c-1.2,1.2-3.4.1-4.6-.5.8-.8,1.5-1.5,2.3-2.3,0,.6.6,1.6,1.3,1.2,1.3-.7,1.8-2.6,1.6-3.9.2-.1.5-.4.7-.6Z"/>
      <path class="st0" d="M674.3,471.5c-.3.8-2.7,3.5-4.1,3.8,0-1.8,1.7-2.6,2.6-3.9s.6-3.3,1.9-4.6v-2.4s1-.9,1-.9c.8.7.2,1.5,0,2.3-.3,2.1-.7,3.8-1.4,5.6Z"/>
      <path class="st0" d="M655.9,490c-.3.1-.6.5-1,.6-.6-.7-.2-1.8-.3-2.5-.2-1.9,0-2.8.8-4.2s2-2.2,3-3.2c-.2,3.2-2.6,5.3-2.6,9.3Z"/>
      <path class="st0" d="M705.7,440.1c-.6,1.1-1.5,1.9-2.8,2.1l.8-5c0-.3,0-.7-.4-.7.3-.2.7-.7,1-1,2.3,2.5.7,3.6,1.4,4.6Z"/>
      <polygon class="st0" points="696.8 447.5 696.9 447.7 696.6 448 696.4 447.7 696.6 447.4 696.8 447.5"/>
      <path class="st0" d="M698.9,446.7c-.3.8-.8,1.1-1.6.8h-.5c0,0,1.5-6.2,1.5-6.2l2.3-2.2c.5,1.5-.8,2.4-1.4,3.7s0,2.8-.2,4Z"/>
      <path class="st12" d="M686.6,452.5c.9-.8,1.6-2.1,2.9-2.7.2,1.3-.2,3.2-1.6,3.9s-1.3-.5-1.3-1.2Z"/>
      <path class="st0" d="M681.1,559.2l-5-1.6c-.2,0-.3.5-.2.6l-10.1-10c-.9-.9-1.6-1.8-2.3-2.5,1.2-.3.5-1.8,1.2-3.4l16.4,16.8Z"/>
      <path class="st12" d="M681.1,559.2c2.3.7,3.7,3.5,5.4,5.1-.6.3-.5,1.6,0,2,1.4,1.2,1.7,3.2,3,4.4l3.2,2.8c1.4,1.2,3.2,1.6,4.7,2.2,0,.3.1.6.3.9.1.7,0,1.4-.4,1.9l-1.8-.8-5.6-5.5-7.4-7.3-6.5-6.6c0-.1,0-.6.2-.6l5,1.6Z"/>
      <path class="st0" d="M693.6,571.2l2,2.1c.7.8,1.5,1.5,1.7,2.4-1.4-.6-3.3-1-4.7-2.2l-3.2-2.8c-1.3-1.1-1.6-3.1-3-4.4s-.6-1.7,0-2l7.2,6.9Z"/>
      <path class="st12" d="M660.1,537.9c1.7,1.4,3.1,3.1,4.6,4.6-.7,1.6,0,3-1.2,3.4l-7.6-7.4c0-2.1,2.2.8,4.2-.5Z"/>
      <path class="st0" d="M655.4,533.1c-.3,0-.6.5-.4.8l.6.6c.7.6,1.3,1.5,2.2,1.1.8.8,1.5,1.6,2.3,2.2-2,1.3-4.2-1.6-4.2.5l-3.2-2.8c.3-1,1.9-3.3,2.7-2.5Z"/>
      <path class="st13" d="M651.2,534.2c.2-1.3-2.3-1.8-2.3-3.9.5-.5,1.1-2.1,2.3-1.6.7.3,1.9,1.6,2.1,2.3.5,1.5-.9,3.1-2.1,3.2Z"/>
      <path class="st0" d="M648,529.6c-.6,0-1.2-.2-1.4-.9.4-.6,1.2-2.5,2.2-2.3,1.2.9-.1,2.5-.8,3.2Z"/>
      <path class="st12" d="M657.8,535.6c-.9.4-1.5-.5-2.2-1.1l-.6-.6c-.3-.3,0-.8.4-.8l2.4,2.5Z"/>
      <path class="st0" d="M579.5,559.4c.7,1.2-.8,2.2-1,3-.6,3.3-3.4,6-6.4,8-1.1-2.5,2.8-4,1-4.7l6.4-6.2Z"/>
      <path class="st0" d="M585.5,553.4c1.7,1.2-1.7,3.1-2.2,8.4s-3,4-4.3,3.7c1.1-4.4,4.4-6.7,4.7-10.1s1.1-1.4,1.7-2Z"/>
      <path class="st0" d="M569.9,569.1c0,3.6-3,6.9-6.3,7.6.4-3.4,4.6-5.8,6.3-7.6Z"/>
      <path class="st0" d="M547,425.7c.2,1.7.5,4.2,2.3,5.2l4.1,2.5c1.8,1.1,3.9,1.7,4.9,3.9-2.2-.6-3.8-1.3-5.7-1.2-1.3-.6-2.1-1.8-3.2-3l-3.4-3.5c1.1-.8-1.5-2.2.3-4.4l.8.5Z"/>
      <path class="st12" d="M541,420.6c2,1.2,3.6,3,5.2,4.7-1.8,2.2.8,3.6-.3,4.4-.5-.5-.9-1.1-1.5-1.8l-7.9-8.2c2.7-.5,3.3,2.2,4.5.9Z"/>
      <path class="st12" d="M527.3,405.5c.9.6,1.2,1.4,1.4,2.3-.8.8-1.7,1-2.6,1.1s-1.4-1.1-1.9-1.6c.7-1.3,1.9-1.8,3.1-1.8Z"/>
      <path class="st0" d="M527.3,405.5c-1.3,0-2.5.5-3.1,1.8-.9-.5-1.8-1.5-1.7-2.6,1.1,0,2.1.2,3.2.4.2-.2.3-.7.2-.9.6.3,1,1,1.4,1.3Z"/>
      <path class="st12" d="M525.9,404.1c0,.1,0,.7-.2.9-1.2-.2-2.2-.5-3.2-.4-.1-.4-.6-1-.5-1.5,1.4-.4,2.7.3,3.9,1Z"/>
      <path class="st13" d="M730.9,414.4c.3,1.2-1.2,1.3-1.6,1.8-.5,0-.8-.4-.7-.7s.5-.6.9-.8l.8-.6c.1-.1.5.2.6.3Z"/>
      <path class="st19" d="M697.6,576.7c-.1-.3-.2-.6-.3-.9.3,0,.5,0,.7,0"/>
      <path class="st0" d="M716.7,428.3c-2.3,2.5-4.3,5.4-7.4,7.6s-.6,1.8-1.8,1.4c.2-1.8.9-2.9,2.2-4.3,2-2.1,4-4.8,7-4.6Z"/>
      <path class="st0" d="M687.8,457.2c0,1.4-1,2.1-1.8,2.9-1.1-.9-3-.2-3.8-.9s-.2-1.4.1-1.6c1.9.2,3.8-.1,5.5-.4Z"/>
      <path class="st0" d="M668.8,477c-.4.5-.7,1-1.5,1,.1-.2,0-.8.4-1s.7-.1,1.1,0Z"/>
      <path class="st12" d="M575.8,459.9c-1.1-.5-2-2.3-2.9-3.2s-1.9-1.4-2.6-2.6-2.1-1.7-2.9-2.4c1.7-2.4,6.9,1.1,7.5,3.6l1,4.7Z"/>
      <path class="st0" d="M620.1,520.3c1.7-.5-.3,2-1.6,5.1-1.6-1.6.6-4.8,1.6-5.1Z"/>
    </g>
  </g>
</svg>